<svg xmlns="http://www.w3.org/2000/svg" xmlns:xlink="http://www.w3.org/1999/xlink" xmlns:lucid="lucid" width="1921.53" height="745.8"><g transform="translate(-259.473903618421 521)" lucid:page-tab-id="0_0"><path d="M0-1000h2500V500H0z" fill="#fff"/><path d="M1160-514a6 6 0 0 1 6-6h1008a6 6 0 0 1 6 6v668a6 6 0 0 1-6 6H1166a6 6 0 0 1-6-6z" fill-opacity="0"/><path d="M1185.77-520h19.76m9.88 0h19.78m9.88 0h19.76m9.9 0h19.75m9.88 0h19.77m9.88 0h19.77m9.88 0h19.76m9.9 0h19.76m9.88 0h19.77m9.9 0h19.75m9.88 0H1502m9.88 0h19.77m9.88 0h19.76m9.88 0h19.76m9.88 0h19.77m9.87 0h19.76m9.9 0h19.75m9.88 0h19.77m9.88 0h19.78m9.88 0h19.76m9.9 0h19.75m9.88 0h19.77m9.88 0h19.77m9.88 0h19.76m9.9 0h19.76m9.88 0h19.77m9.9 0h19.75m9.88 0H2006m9.88 0h19.77m9.88 0h19.76m9.88 0h19.76m9.88 0h19.77m9.87 0h19.77m9.88 0h9.88a6 6 0 0 1 6 6v10.12m0 10.12v20.25m0 10.1v20.25m0 10.12v20.24m0 10.13v20.25m0 10.12v20.24m0 10.12v20.24m0 10.12v20.25m0 10.12v20.23m0 10.12v20.24m0 10.1v20.26m0 10.12v20.24m0 10.12v20.25m0 10.1v20.25m0 10.12v20.24m0 10.13v20.25m0 10.12v20.24m0 10.12V12.3m0 10.12v20.25m0 10.12v20.23m0 10.12v20.24m0 10.1v20.26m0 10.12V154a6 6 0 0 1-6 6h-9.88m-9.88 0h-19.77m-9.88 0h-19.78m-9.88 0h-19.76m-9.9 0h-19.75m-9.88 0h-19.77m-9.88 0h-19.77m-9.88 0h-19.76m-9.9 0h-19.76m-9.88 0h-19.77m-9.9 0h-19.75m-9.88 0H1838m-9.88 0h-19.77m-9.88 0h-19.76m-9.88 0h-19.76m-9.88 0h-19.77m-9.87 0h-19.76m-9.9 0h-19.75m-9.88 0h-19.77m-9.88 0h-19.78m-9.88 0h-19.76m-9.9 0h-19.75m-9.88 0h-19.77m-9.88 0h-19.77m-9.88 0h-19.76m-9.9 0h-19.76m-9.88 0h-19.77m-9.9 0h-19.75m-9.88 0H1334m-9.88 0h-19.77m-9.88 0h-19.76m-9.88 0h-19.76m-9.88 0h-19.77m-9.87 0h-19.76m-9.9 0H1166a6 6 0 0 1-6-6v-10.12m0-10.12v-20.24m0-10.13V83.14m0-10.12V52.8m0-10.13V22.42m0-10.12V-7.94m0-10.12V-38.3m0-10.12v-20.25m0-10.12v-20.23m0-10.12v-20.24m0-10.1v-20.26m0-10.12v-20.24m0-10.12v-20.25m0-10.1v-20.25m0-10.12v-20.24m0-10.13v-20.25m0-10.12v-20.24m0-10.12v-20.24m0-10.12v-20.25m0-10.12v-20.23m0-10.12v-20.24m0-10.12v-20.24m0-10.12V-514a6 6 0 0 1 6-6h9.88" stroke="#0e76d4" stroke-width="2" fill="none"/><path d="M1170-510h36v36h-36v-36z" stroke="#000" stroke-opacity="0" fill-opacity="0"/><path d="M1171-479.84c0 .13.06.22.16.3l2.32 1.27 3.9 2.28c.18.07.38.04.47-.12l1.33-2.24c.07-.16.02-.32-.13-.42l-4.6-2.6c-.1-.06-.15-.16-.15-.3v-20.6c0-.14.06-.24.16-.3l4.6-2.6c.14-.1.2-.26.12-.42l-1.33-2.24c-.1-.16-.3-.23-.45-.16l-3.84 2.2-2.4 1.36c-.1.06-.16.16-.16.3v24.3z" stroke="#000" stroke-opacity="0" fill="#949494"/><path d="M1174.28-502.46l.12-.12 4.6-2.6.06-.03c.12-.1.15-.28.06-.4l-1.32-2.24-.02-.06c-.1-.15-.27-.2-.42-.1l-3.86 2.2-2.38 1.35s-.1 0-.12.13l1.8 1.02zM1179-478.8l-4.6-2.62c-.07-.04-.1-.1-.14-.18l-3.24 2h.1l2.3 1.3 4 2.23s0 .02.03.03c.15.07.33 0 .4-.15l1.32-2.23v-.04c.05-.15-.04-.3-.18-.34z" stroke="#000" stroke-opacity="0" fill="#a3a3a3"/><path d="M1205-479.84c0 .13-.07.22-.16.3l-2.33 1.27-3.9 2.28c-.17.07-.36.04-.46-.12l-1.32-2.24c-.08-.16-.03-.32.12-.42l4.6-2.6c.1-.06.15-.16.15-.3v-20.6c0-.14-.07-.24-.16-.3l-4.6-2.6c-.15-.1-.2-.26-.12-.42l1.32-2.24c.08-.16.28-.23.45-.16l3.83 2.18 2.4 1.35c.1.06.16.16.16.3v24.33z" stroke="#000" stroke-opacity="0" fill="#949494"/><path d="M1201.7-502.46l-.1-.12-4.6-2.6c-.15-.06-.22-.23-.15-.37 0-.02 0-.03.02-.05l1.32-2.24c.04-.16.2-.24.37-.2l.06.04 3.86 2.18 2.37 1.33.12.14-1.8 1zM1197-478.8l4.6-2.62c.08-.04.12-.1.15-.18l3.24 2-2.3 1.3-4 2.23c-.14.1-.33.06-.42-.08l-.03-.04-1.32-2.23c-.08-.13-.04-.3.08-.38z" stroke="#000" stroke-opacity="0" fill="#a3a3a3"/><path d="M1198.62-498.16v12.3l-10.66 6.17V-492l10.66-6.16z" stroke="#000" stroke-opacity="0" fill="#32bedd"/><path d="M1198.62-498.14l-10.64 6.18-10.64-6.18 10.64-6.17 10.64 6.16z" stroke="#000" stroke-opacity="0" fill="#9cebff"/><path d="M1187.96-491.97v12.28l-10.62-6.18v-12.28l10.62 6.2z" stroke="#000" stroke-opacity="0" fill="#50e6ff"/><path d="M1177.34-485.83l10.62-6.13v12.3l-10.62-6.17z" stroke="#000" stroke-opacity="0" fill="#9cebff"/><path d="M1198.62-485.83l-10.66-6.13v12.3l10.66-6.17z" stroke="#000" stroke-opacity="0" fill="#50e6ff"/><use xlink:href="#a" transform="matrix(1,0,0,1,1236,-500) translate(0 21.52777777777778)"/><use xlink:href="#b" transform="matrix(1,0,0,1,1236,-500) translate(97.35243055555554 21.52777777777778)"/><path d="M338.34-349.25c4.22 0 7.66-3.7 7.66-8.17v-.95c-3.1-25.83-16.7-46.8-43-46.8-26.32 0-40.25 17.78-42.9 46.86-.1 0-.1.05-.1.05-.34 4.53 2.75 8.55 6.97 9h71.37z" stroke="#000" stroke-opacity="0" fill="url(#c)"/><path d="M302.97-399.02c-4.84 0-8.98-1.3-13.04-4.13l13.04 36.24 12.84-36.03c-4.03 2.72-8.06 3.95-12.83 3.9z" stroke="#000" stroke-opacity="0" fill="#44dbf9"/><path d="M327.16-424.92c0 14.26-10.8 25.83-24.08 25.83-13.3 0-24.07-11.56-24.07-25.82s10.8-25.83 24.08-25.83c13.3 0 24.08 11.57 24.08 25.83z" stroke="#000" stroke-opacity="0" fill="url(#d)"/><use xlink:href="#e" transform="matrix(1,0,0,1,230,-340.25) translate(48.20616319444444 21.52777777777778)"/><path d="M790.1-400h373.52" stroke="#3a414a" fill="none"/><path d="M790.1-399.52h-.5v-.96h.5z" stroke="#3a414a" stroke-width=".05" fill="#3a414a"/><path d="M1178.38-400l-14.26 4.63v-9.26z" stroke="#3a414a" fill="#3a414a"/><path d="M1831.74-216.45c-15.6 0-28.26-4.05-28.26-9.07v48.02c0 4.9 12.43 8.96 27.92 9h.34c15.6 0 28.26-4.04 28.26-9v-48.02c0 5.02-12.66 9.07-28.26 9.07z" stroke="#000" stroke-opacity="0" fill="url(#f)"/><path d="M1860-225.52c0 5-12.66 9.05-28.26 9.05-15.6 0-28.26-4.04-28.26-9.05 0-5 12.66-8.98 28.26-8.98 15.6 0 28.26 4.04 28.26 8.98" stroke="#000" stroke-opacity="0" fill="#e8e8e8"/><path d="M1853.4-226.22c0 3.2-9.75 5.73-21.66 5.73-11.9 0-21.66-2.53-21.66-5.72 0-3.2 9.75-5.73 21.66-5.73 11.9 0 21.66 2.54 21.66 5.73" stroke="#000" stroke-opacity="0" fill="#50e6ff"/><path d="M1831.8-224.88c-6.1-.12-11.26.52-17.16 2.12 5.87 1.74 11.05 2.42 17.16 2.26 6.1.16 11.3-.52 17.16-2.26-5.9-1.6-11.05-2.24-17.16-2.12z" stroke="#000" stroke-opacity="0" fill="#32bedd"/><path d="M1768.26-216.45c-15.6 0-28.26-4.05-28.26-9.07v48.02c0 4.9 12.43 8.96 28.26 9 15.6 0 28.26-4.04 28.26-9v-48.02c0 5.02-12.66 9.07-28.26 9.07z" stroke="#000" stroke-opacity="0" fill="url(#g)"/><path d="M1796.52-225.52c0 5-12.66 9.05-28.26 9.05-15.6 0-28.26-4.04-28.26-9.05 0-5 12.66-8.98 28.26-8.98 15.6 0 28.26 4.04 28.26 8.98" stroke="#000" stroke-opacity="0" fill="#e8e8e8"/><path d="M1789.88-226.22c0 3.2-9.74 5.73-21.66 5.73-11.9 0-21.66-2.53-21.66-5.72 0-3.2 9.75-5.73 21.66-5.73 11.92 0 21.66 2.54 21.66 5.73" stroke="#000" stroke-opacity="0" fill="#50e6ff"/><path d="M1768.25-224.88c-6.1-.12-11.26.52-17.16 2.12 5.86 1.74 11.04 2.42 17.15 2.26 6.1.16 11.3-.52 17.16-2.26-5.9-1.6-11.04-2.24-17.15-2.12z" stroke="#000" stroke-opacity="0" fill="#32bedd"/><path d="M1800.06-184.47c-15.6 0-28.26-4.05-28.26-9.07v48.03c0 4.95 12.43 8.94 27.92 9h.34c15.6 0 28.26-4.05 28.26-9v-48.04c0 5.02-12.66 9.07-28.26 9.07z" stroke="#000" stroke-opacity="0" fill="url(#h)"/><path d="M1828.32-193.47c0 5-12.66 9.05-28.26 9.05-15.6 0-28.26-4.04-28.26-9.05 0-5.02 12.66-8.98 28.26-8.98 15.6 0 28.26 4.03 28.26 8.98" stroke="#000" stroke-opacity="0" fill="#e8e8e8"/><path d="M1821.6-194.17c0 3.18-9.75 5.73-21.66 5.73-11.9 0-21.66-2.55-21.66-5.73 0-3.17 9.75-5.44 21.66-5.44 11.9 0 21.66 2.53 21.66 5.72" stroke="#000" stroke-opacity="0" fill="#50e6ff"/><path d="M1800-192.6c-6.1-.13-11.26.5-17.16 2.1 5.87 1.66 11.05 2.25 17.16 2 6.1.16 11.3-.53 17.16-2.27-5.9-1.5-11.1-2.05-17.16-1.84z" stroke="#000" stroke-opacity="0" fill="#32bedd"/><path d="M1796.43-225.52h7.06v23.13h-7.1z" stroke="#000" stroke-opacity="0" fill-opacity="0"/><use xlink:href="#i" transform="matrix(1,0,0,1,1710,-127.5) translate(24.299045138888886 21.52777777777778)"/><use xlink:href="#j" transform="matrix(1,0,0,1,1710,-127.5) translate(88.19878472222221 21.52777777777778)"/><path d="M500-234.5h120v116H500z" fill-opacity="0"/><path d="M506.72-171.58l52.8 34.47 53.76-34.53 6.72 7.87-60.48 39.23-59.52-39.2 6.72-7.85z" fill="#44dbf9"/><path d="M510.72-175.93l48.82-58.57 49.82 58.57-49.82 31.68-48.82-31.68z" fill="#fff"/><path d="M559.56-234.5v90.25l-48.84-31.68 48.84-58.57z" fill="#44dbf9"/><path d="M559.52-234.5v90.25l49.8-31.68-49.8-58.57z" fill="url(#k)"/><path d="M559.52-187.87l49.8 12-49.8 31.62v-43.62z" fill="#47a6da"/><path d="M559.56-144.25l-48.84-31.7 48.84-11.92v43.62z" fill="#90e0f9"/><path d="M559.52-124.53L620-163.76l-6.77-7.87-53.7 34.52v12.57z" fill="url(#l)"/><path d="M609.6-160.26c.05-.07.05-.07.1-.07 3.03-3.1 3.03-8.14-.1-11.25l-13.53-13.6c-3.1-3.1-8.06-3.1-11.1 0l-13.58 13.6c-3.05 3.18-3.05 8.15 0 11.32l11.3 11.4c.43.4.64.96.64 1.5v21.2c-.04.76.26 1.38.82 1.93l5.14 5.18c.04.07.08.07.13.14.68.6 1.75.54 2.35-.15l4.97-4.97 3-3.04c.4-.4.4-1.03 0-1.45l-2.14-2.08c-.42-.4-.46-1.1-.08-1.6.05 0 .1-.06.1-.06l2.13-2.13c.4-.42.4-1.04 0-1.45l-2.14-2.14c-.42-.35-.46-1.04-.08-1.45 0-.08.05-.08.1-.15l2.13-2.14c.4-.4.4-1.03 0-1.44l-3-3.04v-1.1zm-19.1-21.67c2.48 0 4.5 2 4.5 4.5 0 2.47-2.02 4.54-4.5 4.54-2.45 0-4.46-2.06-4.46-4.54 0-2.5 2-4.5 4.46-4.5z" fill="#f3bf00"/><path d="M587.1-125.3c.2.23.47.32.76.3.53-.06.9-.5.86-1.03v-17.5c.02-.36-.13-.68-.4-.9-.2-.13-.42-.2-.66-.17-.52.06-.9.55-.84 1.06v17.15c-.14.42-.03.84.27 1.1zM580.9-167h19.87c.83 0 1.23.42 1.23 1.24v.2c0 .82-.4 1.23-1.23 1.23H580.9c-.82 0-1.22-.4-1.22-1.23v-.2c0-.82.4-1.23 1.23-1.23zM580.9-162.7h19.87c.83 0 1.23.4 1.23 1.23v.2c0 .82-.4 1.23-1.23 1.23H580.9c-.82 0-1.22-.4-1.22-1.23v-.2c0-.82.4-1.23 1.23-1.23z" fill="#f38800" fill-opacity=".75"/><use xlink:href="#m" transform="matrix(1,0,0,1,470,-109.50000000000001) translate(58.88563368055556 21.52777777777778)"/><use xlink:href="#n" transform="matrix(1,0,0,1,470,-109.50000000000001) translate(65.55881076388889 53.79340277777778)"/><path d="M685.62-20h87.97V96H685.6z" fill-opacity="0"/><path d="M768.93 35.68h-6.5V15.96c.08-9.74-3.08-17.98-9.67-25.17-6.15-7.2-14.24-10.8-23.73-10.8-9.58-.12-17.75 3.6-24 10.8-6.58 7.06-9.75 15.42-9.66 25.16v19.72h-5.27c-2.46.12-4.48 2.1-4.48 4.52v51.4c0 2.43 2.02 4.4 4.48 4.4h78.83c2.46 0 4.48-1.97 4.57-4.4V40.2c-.1-2.55-2.1-4.4-4.57-4.52zm-21.88 0h-36.03V15.6c0-5.32 1.93-9.96 5.62-13.8 3.16-3.6 7.38-5.56 12.22-5.56 4.83 0 9.05 1.97 12.2 5.57.9.94 1.5 1.75 2.12 2.8 2.55 3.24 3.78 6.72 3.95 10.9z" fill="url(#o)"/><path d="M769.1 35.68h-78.95c-1.12 0-2.07.35-2.84 1.12l84.66 57.8c1.04-.82 1.64-2 1.64-3.35v-51.4c-.17-2.34-2.07-4.1-4.5-4.17z" fill="#44dbf9"/><path d="M690.33 35.68h78.86c1.12 0 2.07.35 2.93 1.12L687.4 94.6c-1.05-.88-1.65-2-1.65-3.35v-51.4c.26-2.34 2.16-4.1 4.58-4.17z" fill="#fff" fill-opacity=".2"/><path d="M745.3 85.44l-40.33-19.9 40.32-19.77 1.8 3.73-32.73 16.03L747.1 81.8l-1.8 3.64z" fill="#0d7fad"/><path d="M717.8 65.67c0 4.45-3.6 8.06-8.08 8.06-4.47 0-8.1-3.6-8.1-8.06 0-4.45 3.63-8.07 8.1-8.07s8.1 3.62 8.1 8.07z" fill="url(#p)"/><path d="M753.97 48.38c0 4.45-3.63 8.06-8.1 8.06-4.46 0-8.1-3.6-8.1-8.06 0-4.45 3.64-8.06 8.1-8.06 4.47 0 8.1 3.6 8.1 8.06z" fill="url(#q)"/><path d="M753.97 83.53c0 4.45-3.63 8.06-8.1 8.06-4.46 0-8.1-3.62-8.1-8.07s3.64-8.06 8.1-8.06c4.47 0 8.1 3.6 8.1 8.06z" fill="url(#r)"/><use xlink:href="#s" transform="matrix(1,0,0,1,655.6183948044059,105.00000000000004) translate(42.142361111111114 21.52777777777778)"/><use xlink:href="#t" transform="matrix(1,0,0,1,655.6183948044059,105.00000000000004) translate(11.5 53.79340277777778)"/><use xlink:href="#u" transform="matrix(1,0,0,1,655.6183948044059,105.00000000000004) translate(97.28559027777779 53.79340277777778)"/><use xlink:href="#v" transform="matrix(1,0,0,1,655.6183948044059,105.00000000000004) translate(36.5 86.05902777777777)"/><use xlink:href="#w" transform="matrix(1,0,0,1,655.6183948044059,105.00000000000004) translate(74 118.32465277777777)"/><path d="M669.6-460h120v120h-120z" fill-opacity="0"/><path d="M729.35-372.5c2.62-2.83 5.85-4.95 9.48-6.26 1.82-2.82 4.24-5.25 6.97-7.17 4.13-2.72 8.98-4.23 14.02-4.23h.7c2.03 0 3.95.3 5.86.7 2.63-6.15 4.14-12.92 4.14-20.08 0-27.85-22.6-50.46-50.46-50.46-27.85 0-50.46 22.6-50.46 50.46 0 27.85 22.6 50.46 50.46 50.46 1.1 0 2.12 0 3.13-.1.6-4.95 2.7-9.6 6.15-13.32z" fill="url(#x)"/><path d="M729.35-372.5c2.62-2.83 5.85-4.95 9.48-6.26.7-1.1 1.62-2.22 2.53-3.23.5-1.5 1-3.12 1.4-4.83h4.55c3.85-2.22 8.08-3.33 12.52-3.33h.7c2.03 0 3.95.3 5.86.7 2.63-6.15 4.14-12.92 4.14-20.08 0-27.85-22.6-50.46-50.46-50.46-27.85 0-50.46 22.6-50.46 50.46 0 27.85 22.6 50.46 50.46 50.46 1.1 0 2.12 0 3.13-.1.6-4.95 2.7-9.6 6.15-13.32zm7.16-21.9h-32.9c-.8-4.75-1.2-9.8-1.2-15.14 0-3.43.2-6.86.5-10.1h34.32c.3 3.24.5 6.67.5 10.1 0 5.35-.4 10.4-1.2 15.14zm26.45-15.14c0 5.35-1 10.4-2.72 15.14h-16.05c.7-4.75 1.1-9.9 1.1-15.14 0-3.43-.2-6.86-.5-10.1h16.96c.8 3.24 1.2 6.67 1.2 10.1zm-25.63-39.26c9.7 4.24 17.46 11.9 21.8 21.6h-15.34c-1.52-8.38-4.04-15.75-7.47-21.4l-.5-.9 1.52.7zm-17.86-3.63h1.2c6.37.7 12.52 10.7 15.45 25.23h-31.98c2.82-14.53 8.98-24.63 15.34-25.23zm-15.24 3.03l.1-.1c-3.64 5.75-6.36 13.42-7.97 22.3H681c4.55-10.1 12.92-18.07 23.22-22.2zm-27.05 39.86c0-3.43.4-6.76 1.2-10v-.1h16.97c-.3 3.24-.5 6.67-.5 10.1 0 5.25.4 10.4 1.1 15.14H679.9c-1.72-4.75-2.73-9.8-2.73-15.14zm6.46 22.7h13.73l.6 2.02c1.5 5.86 3.73 11 6.36 15.14-8.58-3.33-15.85-9.38-20.7-17.15zm21.6 0h29.67c-3.33 12.22-9 20.2-14.84 20.2-5.85 0-11.5-7.98-14.83-20.2z" fill="url(#y)"/><path d="M723.18-359.18c.55-4.95 2.67-9.6 6.05-13.32 2.62-2.83 5.9-4.95 9.52-6.26 1.82-2.82 4.18-5.25 7-7.17 4.14-2.72 8.98-4.23 13.97-4.23h.75c1.92 0 3.83.3 5.7.7 2.72-6.15 4.23-12.92 4.23-20.08 0-27.85-22.58-50.46-50.4-50.46 3.88 11.3 8.37 28.76 8.37 50.46s-4.5 39.16-8.37 50.46c1.06 0 2.12 0 3.18-.1z" fill="url(#z)"/><path d="M789.6-354.88v-.1-.08c-.12-3.58-1.5-7.02-3.93-9.67-1.87-2.07-4.3-3.58-6.95-4.33-.67-3.93-2.67-7.5-5.63-10.24-3.52-3.23-8.24-5-13-4.86-3.88-.04-7.7 1.06-10.9 3.22-2.72 1.86-4.9 4.38-6.35 7.3-3.5.78-6.65 2.6-9.13 5.25-2.84 3.05-4.48 7.07-4.6 11.22v.23c.18 4.67 2.24 9.1 5.7 12.27 3.43 3.13 8.03 4.8 12.7 4.68.47 0 .96-.04 1.44-.1h24.74c.36 0 .66 0 .96-.08 3.8-.08 7.5-1.63 10.3-4.28 2.83-2.74 4.52-6.45 4.64-10.42z" fill="url(#A)"/><use xlink:href="#B" transform="matrix(1,0,0,1,639.6017281377392,-331) translate(43.16840277777778 21.52777777777778)"/><use xlink:href="#C" transform="matrix(1,0,0,1,639.6017281377392,-331) translate(50.27560763888889 53.79340277777778)"/><path d="M1195.4-443h120v86h-120z" fill-opacity="0"/><path d="M1315.4-383.92c-.36-13.5-10.2-24.42-23.4-26.23-.84-18.75-16.44-33.45-35.04-32.85-15.12-.26-28.08 8.7-33.36 22.96-15.84 1.98-27.72 15.14-28.2 31.3.72 18.15 15.84 32.34 33.72 31.74 1.08 0 2.04-.1 3-.17h54.72c.48 0 .96-.1 1.44-.17 14.64-.1 26.64-11.8 27.12-26.58z" fill="url(#D)"/><path d="M1258.52-389.54c-.38-17.36-14.33-31.27-31.56-31.27-17.42 0-31.56 14.28-31.56 31.9 0 17.6 14.14 31.9 31.56 31.9h31.57v-32.54z" fill="#005ba1"/><path d="M1246.28-398.8v22.63l-19.32 11.34v-22.65l19.32-11.32z" fill="#32bedd"/><path d="M1246.28-398.8l-19.32 11.36-19.32-11.36 19.32-11.35 19.32 11.35z" fill="#9cebff"/><path d="M1226.96-387.45v22.62l-19.32-11.34v-22.63l19.32 11.35z" fill="#50e6ff"/><use xlink:href="#E" transform="matrix(1,0,0,1,1165.3982718622608,-348) translate(44.44878472222223 21.52777777777778)"/><use xlink:href="#C" transform="matrix(1,0,0,1,1165.3982718622608,-348) translate(50.27560763888889 53.79340277777778)"/><path d="M360.5-400h263.12M360.5-400h-.5" stroke="#3a414a" fill="none"/><path d="M638.38-400l-14.26 4.63v-9.26z" stroke="#3a414a" fill="#3a414a"/><path d="M1480-240h120v109h-120z" fill-opacity="0"/><path d="M1559.64-172.6c0-12.02 9.7-21.77 21.68-21.77 7.78 0 14.6 4.12 18.44 10.34v-51.94c0-2.27-1.8-4.03-3.95-4.03h-111.85c-2.15 0-3.95 1.76-3.95 4.03V-160c0 2.27 1.8 4.04 3.95 4.04h83.36c-4.78-4.12-7.66-10.25-7.66-16.64z" fill="url(#F)"/><path d="M1524.1-177.98c1.7.07 3.17-1.3 3.24-3.02v-.1-.38c-1.3-10.24-7.08-18.52-18.17-18.52-11.05 0-17.1 7.05-18.3 18.43-.16 1.8 1.12 3.4 2.9 3.6h30.32z" fill="#6df"/><path d="M1509.28-197.5c-1.9-.03-3.8-.58-5.4-1.63l5.4 14.28 5.47-14.18c-1.64 1-3.54 1.53-5.47 1.53z" fill="#f2f2f2"/><path d="M1519.48-207.74c0 5.66-4.57 10.25-10.2 10.25-5.63 0-10.2-4.58-10.2-10.24 0-5.65 4.57-10.24 10.2-10.24 5.63 0 10.2 4.6 10.2 10.24zM1537.13-217.98h41c3.32 0 4.95 1.65 4.95 4.95 0 3.3-1.63 4.96-4.93 4.96h-41.02c-3.3 0-4.93-1.66-4.93-4.96s1.63-4.95 4.93-4.95zM1568.44-193.34h-31.3c-2.73 0-4.94 2.22-4.94 4.95 0 2.74 2.2 4.96 4.93 4.96h21.42c1.88-3.95 4.74-7.64 9.9-9.9z" fill="#6df"/><path d="M1600-172.6c0-10.4-8.36-18.8-18.66-18.8s-18.66 8.4-18.66 18.8c0 6.34 3.13 11.9 7.9 15.33l-1.22 24.04c-.04 1.14.82 2.1 1.98 2.17.56 0 1.15-.24 1.57-.6l8.1-5.2 8.07 5.26c.78.78 2.1.78 2.9 0 .42-.37.64-.97.64-1.57l-.92-23.8c5-3.38 8.32-9.1 8.32-15.64z" fill="url(#G)"/><path d="M1577.7-163.7c-.62 0-1.18-.23-1.6-.65l-6.47-6.5c-.83-.9-.8-2.3.12-3.14.85-.78 2.16-.78 3.02 0l4.9 4.92 12-12c.9-.86 2.32-.78 3.14.1.8.86.8 2.2.02 3.04l-13.57 13.6c-.42.4-1 .64-1.6.64z" fill="#fff"/><use xlink:href="#s" transform="matrix(1,0,0,1,1450,-122) translate(58.142361111111114 21.52777777777778)"/><use xlink:href="#H" transform="matrix(1,0,0,1,1450,-122) translate(31.39539930555557 53.79340277777778)"/><path d="M1255.87-186.02l.07.88.2.85.34.8.45.75.56.66.65.57.74.45.8.33.83.2.9.08h162.2v.94h-162.25l-1-.07-.98-.24-.94-.4-.87-.52-.78-.66-.66-.77-.53-.86-.4-.94-.23-1-.08-.98v-106.75h.95zm0-158.98h-.95v-11.67h.95z" stroke="#3a414a" stroke-width=".05" fill="#3a414a"/><path d="M1255.87-356.66h-.95v-.5h.95z" fill="#3a414a"/><path stroke="#3a414a" stroke-width=".05" fill="#3a414a"/><path d="M1438.38-180l-14.26 4.63v-9.26z" fill="#3a414a"/><path d="M1439.92-180l-16.28 5.3v-10.6zm-15.33 3.98l12.25-3.98-12.26-3.98z" stroke="#3a414a" stroke-width=".05" fill="#3a414a"/><path d="M1880.5-180h214.4a6 6 0 0 0 6-6v-98.5M1880.5-180h-.5" stroke="#3a414a" fill="none"/><path d="M2100.1-298.4l5.45 14-9.26.53z" stroke="#3a414a" fill="#3a414a"/><path d="M1800-260.5V-394a6 6 0 0 0-6-6h-437.62M1800-260.5v.5" stroke="#3a414a" fill="none"/><path d="M1341.62-400l14.26-4.63v9.26z" stroke="#3a414a" fill="#3a414a"/><path d="M2059.5-399.52h-253.48l-.88.06-.85.2-.8.34-.75.45-.66.56-.57.65-.45.74-.33.8-.2.84-.08.88v117.6h-.94v-117.64l.07-1 .24-.98.4-.94.52-.87.66-.78.77-.66.86-.53.94-.4 1-.23.98-.08h253.52z" stroke="#3a414a" stroke-width=".05" fill="#3a414a"/><path d="M2063-399.52h-3.5v-.96h3.5z" fill="#3a414a"/><path stroke="#3a414a" stroke-width=".05" fill="#3a414a"/><path d="M1800-261.62l-4.63-14.26h9.27z" fill="#3a414a"/><path d="M1800-260.08l-5.3-16.28h10.6zm-3.98-15.33l3.98 12.25 3.98-12.26zM560.48 53.98l.06.88.2.85.34.8.45.75.56.66.65.57.74.45.8.33.84.2.88.07h77.6v.95h-77.64l-1-.07-.98-.24-.94-.4-.87-.52-.78-.66-.66-.77-.53-.86-.4-.94-.23-1-.08-.98V-53.23h.96zm0-160.48h-.96V-118h.96z" stroke="#3a414a" stroke-width=".05" fill="#3a414a"/><path d="M560.48-118h-.96v-.5h.96z" fill="#3a414a"/><path stroke="#3a414a" stroke-width=".05" fill="#3a414a"/><path d="M658.38 60l-14.26 4.64v-9.27z" fill="#3a414a"/><path d="M659.92 60l-16.28 5.3V54.7zm-15.33 3.98L656.84 60l-12.26-3.98z" stroke="#3a414a" stroke-width=".05" fill="#3a414a"/><path d="M740-259.5v77a6 6 0 0 1-6 6h-97.62M740-259.5v-.5" stroke="#3a414a" fill="none"/><path d="M621.62-176.5l14.26-4.63v9.26z" stroke="#3a414a" fill="#3a414a"/><path d="M729.6-20.5v-34.3a5.2 5.2 0 0 1 5.2-5.2 5.2 5.2 0 0 0 5.2-5.2v-178.42" stroke="#3a414a" fill="none"/><path d="M730.08-20h-.95v-.5h.95z" stroke="#3a414a" stroke-width=".05" fill="#3a414a"/><path d="M740-258.38l4.63 14.26h-9.26z" stroke="#3a414a" fill="#3a414a"/><path d="M2060-460h91v120h-91z" fill-opacity="0"/><path d="M2105.5-427.3c-25.12 0-45.5-7.05-45.5-16.38v87.3c0 8.92 20.02 16.28 44.86 16.38h.64c25.12 0 45.5-7.05 45.5-16.38v-87.3c0 9.12-20.38 16.38-45.5 16.38z" fill="url(#I)"/><path d="M2151-443.62c0 9.1-20.38 16.38-45.5 16.38s-45.5-7.08-45.5-16.38c0-9.3 20.38-16.38 45.5-16.38s45.5 7.08 45.5 16.38" fill="#e8e8e8"/><path d="M2140.44-444.95c0 5.8-15.72 10.5-34.94 10.5s-34.94-4.7-34.94-10.5 15.72-10.4 34.94-10.4 34.94 4.68 34.94 10.4" fill="#50e6ff"/><path d="M2105.55-442.3c-9.84-.26-18.23.96-27.62 4 9.4 3 17.78 4.17 27.62 3.83 9.88.28 18.28-.96 27.6-4.1-9.38-2.9-17.77-4.04-27.6-3.74z" fill="#198ab3"/><path d="M2142.77-418.96c-2.37 0 .4 1.75-7.9 2.1-8.26.4-11.18 8.83-16.62 15.97-5.97 5.95-12.87 9.15-21.3 10-5.6 1.8-9.88 4.94-13.33 9.78-1 2.05-2.76 3.4-5.06 3.7-1.9 0-6.05.54-6.05.54-1.83.4-3.36.9-5.05 1.7.54 2.35 5.3 1.35 5.3 1.35-1.24 1.25-2.4 2.24-3.76 3.3 2.44.6 4.58.7 7.1.34 3.08 0 5.38-2.88 11.05-5.88 5.6-3.04 18.46 0 20.53 0 2.07 0 5.13-5.4 5.82-7.1.62 3.8-5.82 14.14-5.82 14.14 5.06-.35 9.2-2.8 11.8-7.04.54-.75 2.38-4.4 2.53-4.04.24.35 1.16 1.35 1.54 1.2.7-.6 1.23-1.2 1.76-1.9 3.9-5.6 6.36-10.93 8.12-17.52.46-1.7.46-7.84 4.76-10.4 4.2-2.53 4.82-4.88 4.82-5.08v-.35c-1.15-.7-2-1.44-2.83-2.44-.08-.26-.08-.56 0-.8.76 1.38 1.9 2.28 3.44 2.68 0 0 1.47-4.24-.83-4.24zm-8.9 7.5h-.45c-.76.14-1.45-.06-2.06-.56.53-1.5 2.06-2.4 3.67-2.15.4 1.05-.07 2.25-1.15 2.7zm4 0c.6-1.56 1.3-2.76 2.3-4.1-1 1.44-1.76 2.74-2.45 4.4zm2.53-3.6c-.4 1.2-.54 2.3-.54 3.6-.15-.96-.15-1.76 0-2.7-.54.9-.92 1.74-1.15 2.74.32-1.25.78-2.3 1.54-3.4zM2128.32-382.24s-3.48 3.25-3.62 4.38c0 0 3.83 2.9 6.32 2.26-1.1-2.26-1.9-4.24-2.7-6.64z" fill="#f2f2f2"/><g><use xlink:href="#J" transform="matrix(1,0,0,1,2030,-331) translate(30.648654513888893 21.52777777777778)"/></g><path d="M1540-240.5V-394a6 6 0 0 1 6-6h477.62" stroke="#3a414a" fill="none"/><path d="M1540.47-240h-.94v-.5h.94z" stroke="#3a414a" stroke-width=".05" fill="#3a414a"/><path d="M2038.38-400l-14.26 4.63v-9.26z" stroke="#3a414a" fill="#3a414a"/><defs><path d="M180 0v-1490h528c311 0 458 177 458 395 0 191-114 278-244 313v14c139 9 302 137 302 371 0 225-148 397-499 397H180zm190-168h350c232 0 321-102 321-231 0-149-120-277-311-277H370v508zm0-668h328c160 0 286-101 286-255 0-129-87-231-280-231H370v486" id="K"/><path d="M471 26C259 26 90-98 90-318c0-256 228-303 435-329 202-27 287-16 287-108 0-139-79-219-234-219-161 0-248 86-283 164l-173-57c86-203 278-265 451-265 150 0 419 46 419 395V0H815v-152h-12C765-73 660 26 471 26zm31-159c199 0 310-134 310-271v-155c-30 35-226 55-295 64-131 17-246 59-246 186 0 116 97 176 231 176" id="L"/><path d="M613 24c-304 0-509-231-509-576 0-350 205-580 509-580 216 0 392 114 453 309l-173 49c-33-115-133-197-280-197-223 0-326 196-326 419 0 220 103 415 326 415 150 0 252-85 285-206l172 49C1010-95 832 24 613 24" id="M"/><path d="M158 0v-1490h180v865h22l478-493h223L593-638 1096 0H865L456-523 338-412V0H158" id="N"/><path d="M628 24c-324 0-524-230-524-574 0-343 198-582 503-582 237 0 487 146 487 559v75H286c9 234 145 362 343 362 132 0 231-58 273-172l174 48C1024-91 857 24 628 24zM287-650h624c-17-190-120-322-304-322-192 0-309 151-320 322" id="O"/><path d="M338-670V0H158v-1118h173l1 207c72-158 192-221 342-221 226 0 378 139 378 422V0H872v-695c0-172-96-275-252-275-161 0-282 109-282 300" id="P"/><path d="M577 24c-279 0-473-224-473-580 0-354 195-576 474-576 218 0 287 134 324 193h14v-551h180V0H922v-173h-20C865-111 790 24 577 24zm27-161c203 0 314-172 314-421 0-247-108-413-314-413-212 0-317 181-317 413 0 235 108 421 317 421" id="Q"/><g id="a"><use transform="matrix(0.010850694444444444,0,0,0.010850694444444444,0,0)" xlink:href="#K"/><use transform="matrix(0.010850694444444444,0,0,0.010850694444444444,14.539930555555555,0)" xlink:href="#L"/><use transform="matrix(0.010850694444444444,0,0,0.010850694444444444,27.018229166666664,0)" xlink:href="#M"/><use transform="matrix(0.010850694444444444,0,0,0.010850694444444444,39.713541666666664,0)" xlink:href="#N"/><use transform="matrix(0.010850694444444444,0,0,0.010850694444444444,51.41059027777778,0)" xlink:href="#O"/><use transform="matrix(0.010850694444444444,0,0,0.010850694444444444,64.36631944444444,0)" xlink:href="#P"/><use transform="matrix(0.010850694444444444,0,0,0.010850694444444444,77.49565972222221,0)" xlink:href="#Q"/></g><path d="M52 0l541-1490h220L1361 0h-200l-149-416H398L254 0H52zm404-582h497c-103-290-145-390-251-756-108 377-145 460-246 756" id="R"/><path d="M158 0v-1118h174v172h12c41-113 157-188 290-188 26 0 70 2 91 3v181c-11-2-60-10-108-10-161 0-279 109-279 260V0H158" id="S"/><path d="M338-670V0H158v-1490h180v566c73-149 190-208 336-208 226 0 379 139 379 422V0H872v-695c0-172-96-275-252-275-161 0-282 109-282 300" id="T"/><path d="M158 0v-1118h180V0H158zm91-1301c-68 0-125-53-125-119s57-119 125-119c69 0 126 53 126 119s-57 119-126 119" id="U"/><path d="M598-1118v154H368v674c0 100 37 144 132 144 23 0 62-6 92-12L629-6c-37 13-88 20-134 20-193 0-307-107-307-290v-688H20v-154h168v-266h180v266h230" id="V"/><path d="M537 14c-226 0-379-139-379-422v-710h180v695c0 172 97 275 253 275 160 0 281-109 281-300v-670h181V0H879v-209C806-46 684 14 537 14" id="W"/><g id="b"><use transform="matrix(0.010850694444444444,0,0,0.010850694444444444,0,0)" xlink:href="#R"/><use transform="matrix(0.010850694444444444,0,0,0.010850694444444444,15.33203125,0)" xlink:href="#S"/><use transform="matrix(0.010850694444444444,0,0,0.010850694444444444,23.328993055555554,0)" xlink:href="#M"/><use transform="matrix(0.010850694444444444,0,0,0.010850694444444444,36.02430555555556,0)" xlink:href="#T"/><use transform="matrix(0.010850694444444444,0,0,0.010850694444444444,49.16449652777778,0)" xlink:href="#U"/><use transform="matrix(0.010850694444444444,0,0,0.010850694444444444,54.54644097222222,0)" xlink:href="#V"/><use transform="matrix(0.010850694444444444,0,0,0.010850694444444444,61.59939236111112,0)" xlink:href="#O"/><use transform="matrix(0.010850694444444444,0,0,0.010850694444444444,74.55512152777779,0)" xlink:href="#M"/><use transform="matrix(0.010850694444444444,0,0,0.010850694444444444,87.25043402777779,0)" xlink:href="#V"/><use transform="matrix(0.010850694444444444,0,0,0.010850694444444444,94.52039930555556,0)" xlink:href="#W"/><use transform="matrix(0.010850694444444444,0,0,0.010850694444444444,107.66059027777777,0)" xlink:href="#S"/><use transform="matrix(0.010850694444444444,0,0,0.010850694444444444,115.65755208333333,0)" xlink:href="#O"/></g><linearGradient gradientUnits="userSpaceOnUse" id="c" x1="303" y1="-463.14" x2="303" y2="-324.16"><stop offset="22%" stop-color="#00b0ef"/><stop offset="100%" stop-color="#0066ad"/></linearGradient><linearGradient gradientUnits="userSpaceOnUse" id="d" x1="299.24" y1="-455.18" x2="308.54" y2="-318.67"><stop offset="22%" stop-color="#00b0ef"/><stop offset="100%" stop-color="#0066ad"/></linearGradient><path d="M763 24c-353 0-583-224-583-531v-983h190v968c0 214 149 370 393 370 243 0 391-156 391-370v-968h190v983c0 307-230 531-581 531" id="X"/><path d="M538 24C308 24 148-78 108-271l171-41c32 123 123 178 257 178 156 0 256-77 256-169 0-77-54-128-164-154l-186-44c-203-48-300-148-300-305 0-192 176-326 414-326 230 0 351 112 402 269l-163 42c-31-80-94-158-238-158-133 0-233 69-233 162 0 83 57 129 188 160l169 40c203 48 298 149 298 302 0 196-179 339-441 339" id="Y"/><g id="e"><use transform="matrix(0.010850694444444444,0,0,0.010850694444444444,0,0)" xlink:href="#X"/><use transform="matrix(0.010850694444444444,0,0,0.010850694444444444,16.536458333333332,0)" xlink:href="#Y"/><use transform="matrix(0.010850694444444444,0,0,0.010850694444444444,28.266059027777775,0)" xlink:href="#O"/><use transform="matrix(0.010850694444444444,0,0,0.010850694444444444,41.22178819444444,0)" xlink:href="#S"/></g><linearGradient gradientUnits="userSpaceOnUse" id="f" x1="1740" y1="-185.5" x2="1860" y2="-185.5"><stop offset="0%" stop-color="#005ba1"/><stop offset="7%" stop-color="#0060a9"/><stop offset="36%" stop-color="#0071c8"/><stop offset="52%" stop-color="#0078d4"/><stop offset="100%" stop-color="#005ba1"/></linearGradient><linearGradient gradientUnits="userSpaceOnUse" id="g" x1="1740" y1="-185.5" x2="1860" y2="-185.5"><stop offset="0%" stop-color="#005ba1"/><stop offset="7%" stop-color="#0060a9"/><stop offset="36%" stop-color="#0071c8"/><stop offset="52%" stop-color="#0078d4"/><stop offset="100%" stop-color="#005ba1"/></linearGradient><linearGradient gradientUnits="userSpaceOnUse" id="h" x1="1740" y1="-185.5" x2="1860" y2="-185.5"><stop offset="0%" stop-color="#005ba1"/><stop offset="7%" stop-color="#0060a9"/><stop offset="36%" stop-color="#0071c8"/><stop offset="52%" stop-color="#0078d4"/><stop offset="100%" stop-color="#005ba1"/></linearGradient><path d="M180 0v-1490h510c348 0 508 194 508 460 0 198-88 351-276 417L1256 0h-220L726-579c-117 2-238 0-356 1V0H180zm190-747h312c235 0 327-108 327-283 0-177-92-293-329-293H370v576" id="Z"/><g id="i"><use transform="matrix(0.010850694444444444,0,0,0.010850694444444444,0,0)" xlink:href="#Z"/><use transform="matrix(0.010850694444444444,0,0,0.010850694444444444,13.975694444444445,0)" xlink:href="#O"/><use transform="matrix(0.010850694444444444,0,0,0.010850694444444444,26.931423611111104,0)" xlink:href="#Q"/><use transform="matrix(0.010850694444444444,0,0,0.010850694444444444,40.53819444444444,0)" xlink:href="#U"/><use transform="matrix(0.010850694444444444,0,0,0.010850694444444444,45.920138888888886,0)" xlink:href="#Y"/></g><path d="M783 20c-382 0-661-292-661-764 0-473 279-766 661-766 302 0 548 182 601 489h-190c-42-204-217-313-411-313-268 0-476 208-476 590 0 381 209 588 476 588 195 0 369-110 411-313h190c-52 303-296 489-601 489" id="aa"/><g id="j"><use transform="matrix(0.010850694444444444,0,0,0.010850694444444444,0,0)" xlink:href="#aa"/><use transform="matrix(0.010850694444444444,0,0,0.010850694444444444,16.23263888888889,0)" xlink:href="#L"/><use transform="matrix(0.010850694444444444,0,0,0.010850694444444444,28.7109375,0)" xlink:href="#M"/><use transform="matrix(0.010850694444444444,0,0,0.010850694444444444,41.40625,0)" xlink:href="#T"/><use transform="matrix(0.010850694444444444,0,0,0.010850694444444444,54.54644097222222,0)" xlink:href="#O"/></g><linearGradient gradientUnits="userSpaceOnUse" id="k" x1="588.32" y1="-152.57" x2="557.49" y2="-211.44"><stop offset="0%" stop-color="#0d7dd3"/><stop offset="90%" stop-color="#48a3ea"/></linearGradient><linearGradient gradientUnits="userSpaceOnUse" id="l" x1="575.05" y1="-169.65" x2="596.4" y2="-132.59"><stop offset="10%" stop-color="#48a3ea"/><stop offset="29%" stop-color="#43a0e8"/><stop offset="51%" stop-color="#3597e3"/><stop offset="74%" stop-color="#1e88da"/><stop offset="88%" stop-color="#0d7dd3"/></linearGradient><path d="M180 0v-1490h270l367 940c28 72 75 218 110 339 35-117 81-264 110-339l362-940h271V0h-187c2-448-5-837 7-1287-157 497-311 829-483 1287H842C666-458 514-784 354-1284c12 438 5 843 7 1284H180" id="ab"/><path d="M657 26c-323 0-524-166-541-416h195c15 169 171 246 346 246 202 0 356-106 356-265 5-203-294-238-475-293-239-73-380-191-380-389 0-252 224-419 512-419 294 0 499 171 508 396H992c-17-145-151-228-328-228-193 0-321 102-321 242 0 156 175 211 284 241l149 41c160 44 422 134 422 412 0 244-197 432-541 432" id="ac"/><path d="M180 0v-1490h190v1322h690V0H180" id="ad"/><g id="m"><use transform="matrix(0.010850694444444444,0,0,0.010850694444444444,0,0)" xlink:href="#ab"/><use transform="matrix(0.010850694444444444,0,0,0.010850694444444444,20.07378472222222,0)" xlink:href="#ac"/><use transform="matrix(0.010850694444444444,0,0,0.010850694444444444,34.33159722222222,0)" xlink:href="#R"/><use transform="matrix(0.010850694444444444,0,0,0.010850694444444444,49.66362847222222,0)" xlink:href="#ad"/></g><g id="n"><use transform="matrix(0.010850694444444444,0,0,0.010850694444444444,0,0)" xlink:href="#R"/><use transform="matrix(0.010850694444444444,0,0,0.010850694444444444,15.33203125,0)" xlink:href="#W"/><use transform="matrix(0.010850694444444444,0,0,0.010850694444444444,28.47222222222222,0)" xlink:href="#V"/><use transform="matrix(0.010850694444444444,0,0,0.010850694444444444,35.7421875,0)" xlink:href="#T"/></g><linearGradient gradientUnits="userSpaceOnUse" id="o" x1="726.96" y1="-70.06" x2="730.4" y2="108.85"><stop offset="22%" stop-color="#26c9ef"/><stop offset="100%" stop-color="#0d7fad"/></linearGradient><linearGradient gradientUnits="userSpaceOnUse" id="p" x1="711.15" y1="73.6" x2="708.36" y2="57.73"><stop offset="0%" stop-color="#ccc"/><stop offset="100%" stop-color="#fcfcfc"/></linearGradient><linearGradient gradientUnits="userSpaceOnUse" id="q" x1="747.3" y1="56.32" x2="744.52" y2="40.45"><stop offset="0%" stop-color="#ccc"/><stop offset="100%" stop-color="#fcfcfc"/></linearGradient><linearGradient gradientUnits="userSpaceOnUse" id="r" x1="747.3" y1="91.46" x2="744.52" y2="75.6"><stop offset="0%" stop-color="#ccc"/><stop offset="100%" stop-color="#fcfcfc"/></linearGradient><path d="M98-1322v-168h1126v168H757V0H567v-1322H98" id="ae"/><path d="M613 24c-304 0-509-231-509-576 0-350 205-580 509-580 305 0 511 230 511 580 0 345-206 576-511 576zm0-161c226 0 329-195 329-415 0-222-103-419-329-419-223 0-326 196-326 419 0 220 103 415 326 415" id="af"/><g id="s"><use transform="matrix(0.010850694444444444,0,0,0.010850694444444444,0,0)" xlink:href="#ae"/><use transform="matrix(0.010850694444444444,0,0,0.010850694444444444,12.608506944444445,0)" xlink:href="#af"/><use transform="matrix(0.010850694444444444,0,0,0.010850694444444444,25.93315972222222,0)" xlink:href="#N"/><use transform="matrix(0.010850694444444444,0,0,0.010850694444444444,37.630208333333336,0)" xlink:href="#O"/><use transform="matrix(0.010850694444444444,0,0,0.010850694444444444,50.5859375,0)" xlink:href="#P"/></g><path d="M611 442c-248 0-391-105-460-228l146-94c47 65 117 165 314 165 178 0 307-82 307-266v-224h-17C863-141 792-18 576-18c-268 0-472-195-472-546 0-346 197-568 476-568 216 0 288 133 326 193h17v-179h175V29c0 289-215 413-487 413zm-5-620c203 0 314-146 314-390 0-237-108-403-314-403-213 0-319 180-319 403 0 230 109 390 319 390" id="ag"/><g id="t"><use transform="matrix(0.010850694444444444,0,0,0.010850694444444444,0,0)" xlink:href="#Y"/><use transform="matrix(0.010850694444444444,0,0,0.010850694444444444,11.729600694444445,0)" xlink:href="#V"/><use transform="matrix(0.010850694444444444,0,0,0.010850694444444444,18.782552083333332,0)" xlink:href="#af"/><use transform="matrix(0.010850694444444444,0,0,0.010850694444444444,32.10720486111111,0)" xlink:href="#S"/><use transform="matrix(0.010850694444444444,0,0,0.010850694444444444,40.47309027777777,0)" xlink:href="#L"/><use transform="matrix(0.010850694444444444,0,0,0.010850694444444444,52.951388888888886,0)" xlink:href="#ag"/><use transform="matrix(0.010850694444444444,0,0,0.010850694444444444,66.57986111111111,0)" xlink:href="#O"/></g><g id="u"><use transform="matrix(0.010850694444444444,0,0,0.010850694444444444,0,0)" xlink:href="#L"/><use transform="matrix(0.010850694444444444,0,0,0.010850694444444444,12.47829861111111,0)" xlink:href="#P"/><use transform="matrix(0.010850694444444444,0,0,0.010850694444444444,25.60763888888889,0)" xlink:href="#Q"/></g><path d="M678-1118v154H420V0H240v-964H20v-154h220v-149c0-194 155-293 318-293 85 0 141 18 168 30l-50 154c-19-6-47-17-97-17-111 0-159 58-159 166v109h258" id="ah"/><g id="v"><use transform="matrix(0.010850694444444444,0,0,0.010850694444444444,0,0)" xlink:href="#S"/><use transform="matrix(0.010850694444444444,0,0,0.010850694444444444,7.996961805555555,0)" xlink:href="#O"/><use transform="matrix(0.010850694444444444,0,0,0.010850694444444444,20.95269097222222,0)" xlink:href="#ah"/><use transform="matrix(0.010850694444444444,0,0,0.010850694444444444,29.17751736111111,0)" xlink:href="#S"/><use transform="matrix(0.010850694444444444,0,0,0.010850694444444444,37.174479166666664,0)" xlink:href="#O"/><use transform="matrix(0.010850694444444444,0,0,0.010850694444444444,50.13020833333333,0)" xlink:href="#Y"/><use transform="matrix(0.010850694444444444,0,0,0.010850694444444444,61.85980902777778,0)" xlink:href="#T"/></g><linearGradient gradientUnits="userSpaceOnUse" id="x" x1="669.6" y1="-409.54" x2="737.31" y2="-409.54"><stop offset="44.6%" stop-color="#44dbf9"/><stop offset="54.3%" stop-color="#43d7f6"/><stop offset="62.2%" stop-color="#40cded"/><stop offset="69.6%" stop-color="#3cbcdf"/><stop offset="76.7%" stop-color="#36a4cb"/><stop offset="83.4%" stop-color="#2e84b1"/><stop offset="89.9%" stop-color="#255f92"/><stop offset="92.2%" stop-color="#225086"/></linearGradient><linearGradient gradientUnits="userSpaceOnUse" id="y" x1="720.06" y1="-359.07" x2="720.06" y2="-460"><stop offset="0%" stop-color="#225086"/><stop offset="100%" stop-color="#0055c5"/></linearGradient><linearGradient gradientUnits="userSpaceOnUse" id="z" x1="745.2" y1="-359.07" x2="745.2" y2="-460"><stop offset="0%" stop-color="#225086"/><stop offset="50.8%" stop-color="#0294e4"/><stop offset="100%" stop-color="#6df"/></linearGradient><linearGradient gradientUnits="userSpaceOnUse" id="A" x1="759.35" y1="-340.07" x2="759.35" y2="-382.45"><stop offset="0%" stop-color="#275b98"/><stop offset="100%" stop-color="#3a88ef"/></linearGradient><path d="M180 0v-1490h901v168H370v510h643v168H370V0H180" id="ai"/><g id="B"><use transform="matrix(0.010850694444444444,0,0,0.010850694444444444,0,0)" xlink:href="#ai"/><use transform="matrix(0.010850694444444444,0,0,0.010850694444444444,12.467447916666666,0)" xlink:href="#S"/><use transform="matrix(0.010850694444444444,0,0,0.010850694444444444,20.46440972222222,0)" xlink:href="#af"/><use transform="matrix(0.010850694444444444,0,0,0.010850694444444444,33.7890625,0)" xlink:href="#P"/><use transform="matrix(0.010850694444444444,0,0,0.010850694444444444,46.91840277777778,0)" xlink:href="#V"/><use transform="matrix(0.010850694444444444,0,0,0.010850694444444444,53.97135416666667,0)" xlink:href="#O"/><use transform="matrix(0.010850694444444444,0,0,0.010850694444444444,66.92708333333334,0)" xlink:href="#P"/><use transform="matrix(0.010850694444444444,0,0,0.010850694444444444,80.05642361111111,0)" xlink:href="#Q"/></g><path d="M481 0L54-1118h197c107 314 236 620 325 951 87-331 217-637 324-951h197L670 0H481" id="aj"/><g id="C"><use transform="matrix(0.010850694444444444,0,0,0.010850694444444444,0,0)" xlink:href="#ac"/><use transform="matrix(0.010850694444444444,0,0,0.010850694444444444,14.2578125,0)" xlink:href="#O"/><use transform="matrix(0.010850694444444444,0,0,0.010850694444444444,27.213541666666664,0)" xlink:href="#S"/><use transform="matrix(0.010850694444444444,0,0,0.010850694444444444,35.92664930555555,0)" xlink:href="#aj"/><use transform="matrix(0.010850694444444444,0,0,0.010850694444444444,48.41579861111111,0)" xlink:href="#U"/><use transform="matrix(0.010850694444444444,0,0,0.010850694444444444,53.79774305555556,0)" xlink:href="#M"/><use transform="matrix(0.010850694444444444,0,0,0.010850694444444444,66.49305555555554,0)" xlink:href="#O"/></g><linearGradient gradientUnits="userSpaceOnUse" id="D" x1="1255.4" y1="-357.02" x2="1255.4" y2="-442.96"><stop offset="0%" stop-color="#0078d4"/><stop offset="81.7%" stop-color="#5ea0ef"/></linearGradient><g id="E"><use transform="matrix(0.010850694444444444,0,0,0.010850694444444444,0,0)" xlink:href="#K"/><use transform="matrix(0.010850694444444444,0,0,0.010850694444444444,14.539930555555555,0)" xlink:href="#L"/><use transform="matrix(0.010850694444444444,0,0,0.010850694444444444,27.018229166666664,0)" xlink:href="#M"/><use transform="matrix(0.010850694444444444,0,0,0.010850694444444444,39.713541666666664,0)" xlink:href="#N"/><use transform="matrix(0.010850694444444444,0,0,0.010850694444444444,51.41059027777778,0)" xlink:href="#O"/><use transform="matrix(0.010850694444444444,0,0,0.010850694444444444,64.36631944444444,0)" xlink:href="#P"/><use transform="matrix(0.010850694444444444,0,0,0.010850694444444444,77.49565972222221,0)" xlink:href="#Q"/></g><linearGradient gradientUnits="userSpaceOnUse" id="F" x1="1539.88" y1="-155.96" x2="1539.88" y2="-240"><stop offset="8.9%" stop-color="#225086"/><stop offset="45.8%" stop-color="#0055c5"/></linearGradient><linearGradient gradientUnits="userSpaceOnUse" id="G" x1="1581.34" y1="-131" x2="1581.34" y2="-191.39"><stop offset="0%" stop-color="#0294e4"/><stop offset="19.2%" stop-color="#23aced"/><stop offset="39.8%" stop-color="#40c1f4"/><stop offset="60.3%" stop-color="#55d0fa"/><stop offset="80.5%" stop-color="#61d9fd"/><stop offset="100%" stop-color="#6df"/></linearGradient><g id="H"><use transform="matrix(0.010850694444444444,0,0,0.010850694444444444,0,0)" xlink:href="#aj"/><use transform="matrix(0.010850694444444444,0,0,0.010850694444444444,12.055121527777777,0)" xlink:href="#O"/><use transform="matrix(0.010850694444444444,0,0,0.010850694444444444,25.010850694444443,0)" xlink:href="#S"/><use transform="matrix(0.010850694444444444,0,0,0.010850694444444444,33.72395833333333,0)" xlink:href="#U"/><use transform="matrix(0.010850694444444444,0,0,0.010850694444444444,39.10590277777777,0)" xlink:href="#ah"/><use transform="matrix(0.010850694444444444,0,0,0.010850694444444444,47.33072916666666,0)" xlink:href="#U"/><use transform="matrix(0.010850694444444444,0,0,0.010850694444444444,52.7126736111111,0)" xlink:href="#M"/><use transform="matrix(0.010850694444444444,0,0,0.010850694444444444,65.62499999999999,0)" xlink:href="#L"/><use transform="matrix(0.010850694444444444,0,0,0.010850694444444444,78.1032986111111,0)" xlink:href="#V"/><use transform="matrix(0.010850694444444444,0,0,0.010850694444444444,85.37326388888887,0)" xlink:href="#U"/><use transform="matrix(0.010850694444444444,0,0,0.010850694444444444,90.75520833333331,0)" xlink:href="#af"/><use transform="matrix(0.010850694444444444,0,0,0.010850694444444444,104.07986111111109,0)" xlink:href="#P"/></g><linearGradient gradientUnits="userSpaceOnUse" id="I" x1="2060" y1="-391.84" x2="2151" y2="-391.84"><stop offset="0%" stop-color="#005ba1"/><stop offset="7%" stop-color="#0060a9"/><stop offset="36%" stop-color="#0071c8"/><stop offset="52%" stop-color="#0078d4"/><stop offset="64%" stop-color="#0074cd"/><stop offset="82%" stop-color="#006abb"/><stop offset="100%" stop-color="#005ba1"/></linearGradient><path d="M645 0H180v-1490h484c435 0 692 280 692 742 0 466-257 748-711 748zM370-168h263c363 0 539-218 539-580 0-358-176-574-521-574H370v1154" id="ak"/><g id="J"><use transform="matrix(0.010850694444444444,0,0,0.010850694444444444,0,0)" xlink:href="#ab"/><use transform="matrix(0.010850694444444444,0,0,0.010850694444444444,20.07378472222222,0)" xlink:href="#L"/><use transform="matrix(0.010850694444444444,0,0,0.010850694444444444,32.55208333333333,0)" xlink:href="#S"/><use transform="matrix(0.010850694444444444,0,0,0.010850694444444444,41.265190972222214,0)" xlink:href="#U"/><use transform="matrix(0.010850694444444444,0,0,0.010850694444444444,46.64713541666666,0)" xlink:href="#L"/><use transform="matrix(0.010850694444444444,0,0,0.010850694444444444,59.12543402777778,0)" xlink:href="#ak"/><use transform="matrix(0.010850694444444444,0,0,0.010850694444444444,75.16276041666666,0)" xlink:href="#K"/></g></defs></g></svg>