<svg xmlns="http://www.w3.org/2000/svg" xmlns:xlink="http://www.w3.org/1999/xlink" xmlns:lucid="lucid" width="2500" height="1500"><g transform="translate(500 1000)" lucid:page-tab-id="0_0"><path d="M-500-1000h2500V500H-500z" fill="#fff"/><path d="M840-234a6 6 0 0 1 6-6h808a6 6 0 0 1 6 6v528a6 6 0 0 1-6 6H846a6 6 0 0 1-6-6z" fill-opacity="0"/><path d="M865.95-240h19.95m9.98 0h19.95m9.97 0h19.95m9.98 0h19.95m9.97 0h19.96m9.98 0h19.95m9.98 0h19.96m9.97 0h19.95m9.98 0h19.95m9.98 0h19.95m9.98 0h19.96m9.98 0h19.95m9.96 0H1245m10 0h19.94m9.97 0h19.96m9.98 0h19.95m9.97 0h19.95m9.97 0h19.94m9.98 0h19.95m9.97 0h19.95m9.97 0h19.95m9.97 0h19.95m9.97 0h19.95m9.98 0h19.95m9.97 0h19.95m9.98 0h19.95m9.98 0h9.97a6 6 0 0 1 6 6v9.78m0 9.78v19.55m0 9.8v19.54m0 9.78v19.56m0 9.78v19.55m0 9.8v19.54m0 9.78v19.56m0 9.78v19.55m0 9.8v19.54m0 9.78v19.56m0 9.78V69.1m0 9.8v19.54m0 9.78v19.56m0 9.78v19.55m0 9.8v19.54m0 9.78v19.56m0 9.78v19.55m0 9.8v19.54m0 9.78V294a6 6 0 0 1-6 6h-9.97m-9.98 0h-19.95m-9.98 0h-19.95m-9.97 0h-19.95m-9.98 0h-19.95m-9.97 0h-19.95m-9.98 0h-19.95m-9.98 0h-19.96m-9.97 0h-19.95m-9.98 0h-19.95m-9.98 0h-19.95m-9.98 0h-19.96m-9.98 0h-19.95m-9.96 0H1255m-10 0h-19.94m-9.97 0h-19.96m-9.98 0h-19.95m-9.97 0h-19.95m-9.97 0h-19.94m-9.98 0h-19.95m-9.97 0h-19.95m-9.97 0h-19.95m-9.98 0h-19.95m-9.97 0h-19.95m-9.98 0H925.8m-9.97 0h-19.95m-9.98 0h-19.95m-9.98 0H846a6 6 0 0 1-6-6v-9.78m0-9.78V254.9m0-9.8v-19.54m0-9.78v-19.56m0-9.78V166.9m0-9.8v-19.54m0-9.78v-19.56m0-9.78V78.9m0-9.8V49.57m0-9.78V20.22m0-9.78V-9.1m0-9.8v-19.54m0-9.78v-19.56m0-9.78V-97.1m0-9.8v-19.54m0-9.78v-19.56m0-9.78v-19.55m0-9.8v-19.54m0-9.78V-234a6 6 0 0 1 6-6h9.98" stroke="#0e76d4" stroke-width="2" fill="none"/><path d="M850-230h36v36h-36v-36z" stroke="#000" stroke-opacity="0" fill-opacity="0"/><path d="M851-199.84c0 .13.06.22.16.3l2.32 1.27 3.9 2.28c.18.07.38.04.47-.12l1.33-2.24c.07-.16.02-.32-.13-.42l-4.6-2.6c-.1-.06-.15-.16-.15-.3v-20.6c0-.14.06-.24.16-.3l4.6-2.6c.14-.1.2-.26.12-.42l-1.33-2.24c-.1-.16-.3-.23-.46-.16l-3.84 2.2-2.4 1.36c-.1.06-.16.16-.16.3v24.3z" stroke="#000" stroke-opacity="0" fill="#949494"/><path d="M854.28-222.47l.12-.1 4.6-2.6.06-.04c.12-.1.15-.28.06-.4l-1.32-2.24-.02-.06c-.1-.14-.27-.2-.42-.1l-3.86 2.22-2.38 1.33s-.1 0-.12.13l1.8 1.02zM859-198.8l-4.6-2.62c-.07-.04-.1-.1-.14-.18l-3.24 2h.1l2.3 1.3 4 2.23s0 .02.03.03c.15.07.33 0 .4-.15l1.32-2.23v-.04c.05-.15-.04-.3-.18-.34z" stroke="#000" stroke-opacity="0" fill="#a3a3a3"/><path d="M885-199.84c0 .13-.07.22-.16.3l-2.33 1.27-3.9 2.28c-.17.07-.36.04-.46-.12l-1.32-2.24c-.08-.16-.03-.32.12-.42l4.6-2.6c.1-.06.15-.16.15-.3v-20.6c0-.14-.07-.24-.16-.3l-4.6-2.6c-.15-.1-.2-.26-.12-.42l1.32-2.24c.08-.16.28-.23.45-.16l3.83 2.18 2.4 1.35c.1.06.16.16.16.28v24.36z" stroke="#000" stroke-opacity="0" fill="#949494"/><path d="M881.7-222.47l-.1-.1-4.6-2.6c-.15-.07-.22-.24-.15-.38 0-.02 0-.03.02-.05l1.32-2.24c.04-.16.2-.24.37-.2l.06.04 3.86 2.18 2.37 1.33.12.14-1.8 1zM877-198.8l4.6-2.62c.08-.04.12-.1.15-.18l3.24 2-2.3 1.3-4 2.23c-.14.1-.33.06-.42-.08l-.03-.04-1.32-2.23c-.08-.13-.04-.3.08-.38z" stroke="#000" stroke-opacity="0" fill="#a3a3a3"/><path d="M878.62-218.16v12.28l-10.66 6.2V-212l10.66-6.18z" stroke="#000" stroke-opacity="0" fill="#32bedd"/><path d="M878.62-218.14l-10.64 6.18-10.64-6.18 10.64-6.17 10.64 6.16z" stroke="#000" stroke-opacity="0" fill="#9cebff"/><path d="M867.96-211.97v12.28l-10.62-6.18v-12.28l10.62 6.2z" stroke="#000" stroke-opacity="0" fill="#50e6ff"/><path d="M857.34-205.83l10.62-6.13v12.3l-10.62-6.17z" stroke="#000" stroke-opacity="0" fill="#9cebff"/><path d="M878.62-205.83l-10.66-6.13v12.3l10.66-6.17z" stroke="#000" stroke-opacity="0" fill="#50e6ff"/><use xlink:href="#a" transform="matrix(1,0,0,1,916,-220) translate(0 21.52777777777778)"/><path d="M840-534a6 6 0 0 1 6-6h208a6 6 0 0 1 6 6v248a6 6 0 0 1-6 6H846a6 6 0 0 1-6-6z" fill-opacity="0"/><path d="M865.8-540h19.82m9.9 0h19.8m9.92 0h19.8m9.9 0h19.82m9.9 0h19.82m9.9 0h19.8m9.9 0h9.92a6 6 0 0 1 6 6v10.33m0 10.34v20.66m0 10.34v20.66m0 10.34v20.66m0 10.34v20.66m0 10.34v20.66m0 10.34v20.66m0 10.34v20.66m0 10.34V-286a6 6 0 0 1-6 6h-9.9m-9.9 0h-19.82m-9.9 0h-19.8m-9.92 0h-19.8m-9.9 0h-19.82m-9.9 0H895.5m-9.9 0h-19.8m-9.92 0H846a6 6 0 0 1-6-6v-10.33m0-10.34v-20.66m0-10.34v-20.66m0-10.34v-20.66m0-10.34v-20.66m0-10.34v-20.66m0-10.34v-20.66m0-10.34v-20.66m0-10.34V-534a6 6 0 0 1 6-6h9.9" stroke="#0e76d4" stroke-width="2" fill="none"/><path d="M850-530h36v36h-36v-36z" stroke="#000" stroke-opacity="0" fill-opacity="0"/><path d="M851-499.84c0 .13.06.22.16.3l2.32 1.27 3.9 2.28c.18.07.38.04.47-.12l1.33-2.24c.07-.16.02-.32-.13-.42l-4.6-2.6c-.1-.06-.15-.16-.15-.3v-20.6c0-.14.06-.24.16-.3l4.6-2.6c.14-.1.2-.26.12-.42l-1.33-2.24c-.1-.16-.3-.23-.46-.16l-3.84 2.2-2.4 1.36c-.1.06-.16.16-.16.3v24.3z" stroke="#000" stroke-opacity="0" fill="#949494"/><path d="M854.28-522.47l.12-.1 4.6-2.6.06-.04c.12-.1.15-.28.06-.4l-1.32-2.24-.02-.06c-.1-.14-.27-.2-.42-.1l-3.86 2.22-2.38 1.33s-.1 0-.12.13l1.8 1.02zM859-498.8l-4.6-2.62c-.07-.04-.1-.1-.14-.18l-3.24 2h.1l2.3 1.3 4 2.23s0 .02.03.03c.15.07.33 0 .4-.15l1.32-2.23v-.04c.05-.15-.04-.3-.18-.34z" stroke="#000" stroke-opacity="0" fill="#a3a3a3"/><path d="M885-499.84c0 .13-.07.22-.16.3l-2.33 1.27-3.9 2.28c-.17.07-.36.04-.46-.12l-1.32-2.24c-.08-.16-.03-.32.12-.42l4.6-2.6c.1-.06.15-.16.15-.3v-20.6c0-.14-.07-.24-.16-.3l-4.6-2.6c-.15-.1-.2-.26-.12-.42l1.32-2.24c.08-.16.28-.23.45-.16l3.83 2.18 2.4 1.35c.1.06.16.16.16.3v24.33z" stroke="#000" stroke-opacity="0" fill="#949494"/><path d="M881.7-522.47l-.1-.1-4.6-2.6c-.15-.07-.22-.24-.15-.38 0-.02 0-.03.02-.05l1.32-2.24c.04-.16.2-.24.37-.2l.06.04 3.86 2.18 2.37 1.34.12.12-1.8 1zM877-498.8l4.6-2.62c.08-.04.12-.1.15-.18l3.24 2-2.3 1.3-4 2.23c-.14.1-.33.06-.42-.08l-.03-.04-1.32-2.23c-.08-.13-.04-.3.08-.38z" stroke="#000" stroke-opacity="0" fill="#a3a3a3"/><path d="M878.62-518.16v12.28l-10.66 6.2V-512l10.66-6.18z" stroke="#000" stroke-opacity="0" fill="#32bedd"/><path d="M878.62-518.14l-10.64 6.18-10.64-6.18 10.64-6.17 10.64 6.16z" stroke="#000" stroke-opacity="0" fill="#9cebff"/><path d="M867.96-511.97v12.28l-10.62-6.18v-12.28l10.62 6.2z" stroke="#000" stroke-opacity="0" fill="#50e6ff"/><path d="M857.34-505.83l10.62-6.13v12.3l-10.62-6.17z" stroke="#000" stroke-opacity="0" fill="#9cebff"/><path d="M878.62-505.83l-10.66-6.13v12.3l10.66-6.17z" stroke="#000" stroke-opacity="0" fill="#50e6ff"/><use xlink:href="#b" transform="matrix(1,0,0,1,916,-520) translate(0 21.52777777777778)"/><path d="M320-534a6 6 0 0 1 6-6h201.25a6 6 0 0 1 6 6v828a6 6 0 0 1-6 6H326a6 6 0 0 1-6-6z" fill-opacity="0"/><path d="M345.17-540h19.16m9.6 0h19.15m9.6 0h19.15m9.6 0h19.15m9.58 0h19.17m9.58 0h19.18m9.58 0h9.6a6 6 0 0 1 6 6v9.86m0 9.85v19.73m0 9.86v19.7m0 9.86v19.7m0 9.87v19.7m0 9.87v19.7m0 9.87v19.72m0 9.84v19.72m0 9.85v19.73m0 9.86v19.7m0 9.86v19.7m0 9.87v19.7m0 9.87v19.7m0 9.87v19.72m0 9.84v19.72m0 9.85v19.73m0 9.86V-51m0 9.86v19.7m0 9.87v19.7m0 9.87v19.7m0 9.87V67.3m0 9.84v19.72m0 9.85v19.73m0 9.86V156m0 9.86v19.7m0 9.87v19.7m0 9.87v19.7m0 9.87v19.72m0 9.84V294a6 6 0 0 1-6 6h-9.6m-9.58 0H488.9m-9.57 0h-19.17m-9.58 0h-19.16m-9.6 0h-19.15m-9.6 0h-19.15m-9.6 0h-19.15m-9.6 0H326a6 6 0 0 1-6-6v-9.86m0-9.85v-19.73m0-9.86V225m0-9.86v-19.7m0-9.87v-19.7m0-9.87v-19.7m0-9.87V106.7m0-9.84V77.14m0-9.85V47.56m0-9.86V18m0-9.86v-19.7m0-9.87v-19.7m0-9.87v-19.7m0-9.87v-19.72m0-9.84v-19.72m0-9.85v-19.73m0-9.86V-189m0-9.86v-19.7m0-9.87v-19.7m0-9.87v-19.7m0-9.87v-19.72m0-9.84v-19.72m0-9.85v-19.73m0-9.86V-396m0-9.86v-19.7m0-9.87v-19.7m0-9.87v-19.7m0-9.87v-19.72m0-9.84V-534a6 6 0 0 1 6-6h9.58" stroke="#0e76d4" stroke-width="2" fill="none"/><path d="M330-530h36v36h-36v-36z" stroke="#000" stroke-opacity="0" fill-opacity="0"/><path d="M331-499.84c0 .13.06.22.16.3l2.32 1.27 3.9 2.28c.18.07.38.04.47-.12l1.33-2.24c.07-.16.02-.32-.13-.42l-4.6-2.6c-.1-.06-.15-.16-.15-.3v-20.6c0-.14.06-.24.16-.3l4.6-2.6c.14-.1.2-.26.12-.42l-1.33-2.24c-.1-.16-.3-.23-.46-.16l-3.84 2.2-2.4 1.36c-.1.06-.16.16-.16.3v24.3z" stroke="#000" stroke-opacity="0" fill="#949494"/><path d="M334.28-522.47l.12-.1 4.6-2.6.06-.04c.12-.1.15-.28.06-.4l-1.32-2.24-.03-.06c-.08-.14-.26-.2-.4-.1l-3.87 2.22-2.38 1.33s-.1 0-.12.13l1.8 1.02zM339-498.8l-4.6-2.62c-.07-.04-.1-.1-.14-.18l-3.24 2h.1l2.3 1.3 4 2.23s0 .02.03.03c.15.07.33 0 .4-.15l1.32-2.23v-.04c.05-.15-.04-.3-.18-.34z" stroke="#000" stroke-opacity="0" fill="#a3a3a3"/><path d="M365-499.84c0 .13-.06.22-.16.3l-2.33 1.27-3.9 2.28c-.17.07-.36.04-.46-.12l-1.32-2.24c-.08-.16-.03-.32.12-.42l4.6-2.6c.1-.06.15-.16.15-.3v-20.6c0-.14-.06-.24-.16-.3l-4.6-2.6c-.15-.1-.2-.26-.12-.42l1.32-2.24c.08-.16.28-.23.45-.16l3.83 2.18 2.4 1.35c.1.06.16.16.16.3v24.33z" stroke="#000" stroke-opacity="0" fill="#949494"/><path d="M361.7-522.47l-.1-.1-4.6-2.6c-.15-.07-.22-.24-.15-.38 0-.02 0-.03.02-.05l1.32-2.24c.04-.16.2-.24.37-.2l.06.04 3.86 2.18 2.37 1.34.12.12-1.8 1zM357-498.8l4.6-2.62c.08-.04.12-.1.15-.18l3.24 2-2.3 1.3-4 2.23c-.14.1-.33.06-.42-.08l-.03-.04-1.32-2.23c-.08-.13-.04-.3.08-.38z" stroke="#000" stroke-opacity="0" fill="#a3a3a3"/><path d="M358.62-518.16v12.28l-10.66 6.2V-512l10.66-6.18z" stroke="#000" stroke-opacity="0" fill="#32bedd"/><path d="M358.62-518.14l-10.64 6.18-10.64-6.18 10.64-6.17 10.64 6.16z" stroke="#000" stroke-opacity="0" fill="#9cebff"/><path d="M347.96-511.97v12.28l-10.62-6.18v-12.28l10.62 6.2z" stroke="#000" stroke-opacity="0" fill="#50e6ff"/><path d="M337.34-505.83l10.62-6.13v12.3l-10.62-6.17z" stroke="#000" stroke-opacity="0" fill="#9cebff"/><path d="M358.62-505.83l-10.66-6.13v12.3l10.66-6.17z" stroke="#000" stroke-opacity="0" fill="#50e6ff"/><use xlink:href="#c" transform="matrix(1,0,0,1,396,-520) translate(0 21.52777777777778)"/><path d="M-133.55-48c4.65 0 8.44-4.07 8.44-9v-1.06c-3.43-28.5-18.42-51.65-47.45-51.65-29.04 0-44.4 19.6-47.35 51.7-.1 0-.1.06-.1.06-.38 5 3.04 9.45 7.7 9.94h78.75z" stroke="#000" stroke-opacity="0" fill="url(#d)"/><path d="M-172.58-102.9c-5.34 0-9.9-1.45-14.4-4.57l14.4 39.98 14.16-39.73c-4.45 3-8.9 4.36-14.16 4.32z" stroke="#000" stroke-opacity="0" fill="#44dbf9"/><path d="M-145.9-131.5c0 15.74-11.9 28.5-26.56 28.5-14.67 0-26.57-12.76-26.57-28.5 0-15.73 11.9-28.5 26.57-28.5s26.57 12.77 26.57 28.5z" stroke="#000" stroke-opacity="0" fill="url(#e)"/><use xlink:href="#f" transform="matrix(1,0,0,1,-250,-39) translate(52.70616319444444 21.52777777777778)"/><path d="M1541.62 118.05c-15.6 0-28.26-4.05-28.26-9.07V157c0 4.9 12.43 8.96 27.92 9h.34c15.6 0 28.26-4.04 28.26-9v-48.02c0 5.02-12.66 9.07-28.26 9.07z" stroke="#000" stroke-opacity="0" fill="url(#g)"/><path d="M1569.88 108.98c0 5-12.66 9.05-28.26 9.05-15.6 0-28.26-4.04-28.26-9.05 0-5 12.66-8.98 28.26-8.98 15.6 0 28.26 4.04 28.26 8.98" stroke="#000" stroke-opacity="0" fill="#e8e8e8"/><path d="M1563.28 108.28c0 3.2-9.75 5.73-21.66 5.73-11.9 0-21.66-2.53-21.66-5.72 0-3.2 9.75-5.73 21.66-5.73 11.9 0 21.66 2.54 21.66 5.73" stroke="#000" stroke-opacity="0" fill="#50e6ff"/><path d="M1541.68 109.62c-6.1-.12-11.26.52-17.16 2.12 5.87 1.74 11.05 2.43 17.16 2.26 6.1.17 11.3-.52 17.16-2.26-5.9-1.6-11.05-2.24-17.16-2.12z" stroke="#000" stroke-opacity="0" fill="#32bedd"/><path d="M1478.14 118.05c-15.6 0-28.26-4.05-28.26-9.07V157c0 4.9 12.43 8.96 28.26 9 15.6 0 28.26-4.04 28.26-9v-48.02c0 5.02-12.66 9.07-28.26 9.07z" stroke="#000" stroke-opacity="0" fill="url(#h)"/><path d="M1506.4 108.98c0 5-12.66 9.05-28.26 9.05-15.6 0-28.26-4.04-28.26-9.05 0-5 12.66-8.98 28.26-8.98 15.6 0 28.26 4.04 28.26 8.98" stroke="#000" stroke-opacity="0" fill="#e8e8e8"/><path d="M1499.76 108.28c0 3.2-9.74 5.73-21.66 5.73-11.9 0-21.66-2.53-21.66-5.72 0-3.2 9.75-5.73 21.66-5.73 11.92 0 21.66 2.54 21.66 5.73" stroke="#000" stroke-opacity="0" fill="#50e6ff"/><path d="M1478.13 109.62c-6.1-.12-11.26.52-17.16 2.12 5.87 1.74 11.05 2.43 17.16 2.26 6.1.17 11.3-.52 17.16-2.26-5.92-1.6-11.06-2.24-17.17-2.12z" stroke="#000" stroke-opacity="0" fill="#32bedd"/><path d="M1509.94 150.03c-15.6 0-28.26-4.05-28.26-9.07V189c0 4.95 12.43 8.94 27.92 9h.34c15.6 0 28.26-4.05 28.26-9v-48.04c0 5.02-12.66 9.07-28.26 9.07z" stroke="#000" stroke-opacity="0" fill="url(#i)"/><path d="M1538.2 141.03c0 5-12.66 9.05-28.26 9.05-15.6 0-28.26-4.04-28.26-9.05 0-5.02 12.66-8.98 28.26-8.98 15.6 0 28.26 4.03 28.26 8.98" stroke="#000" stroke-opacity="0" fill="#e8e8e8"/><path d="M1531.48 140.33c0 3.18-9.75 5.73-21.66 5.73-11.9 0-21.66-2.55-21.66-5.73 0-3.17 9.75-5.44 21.66-5.44 11.9 0 21.66 2.53 21.66 5.72" stroke="#000" stroke-opacity="0" fill="#50e6ff"/><path d="M1509.88 141.9c-6.1-.13-11.26.5-17.16 2.1 5.87 1.66 11.05 2.25 17.16 2 6.1.16 11.3-.53 17.16-2.27-5.9-1.5-11.1-2.05-17.16-1.84z" stroke="#000" stroke-opacity="0" fill="#32bedd"/><path d="M1506.3 108.98h7.07v23.12h-7.1z" stroke="#000" stroke-opacity="0" fill-opacity="0"/><use xlink:href="#j" transform="matrix(1,0,0,1,1419.8791666666666,207) translate(24.299045138888886 21.52777777777778)"/><use xlink:href="#k" transform="matrix(1,0,0,1,1419.8791666666666,207) translate(88.19878472222221 21.52777777777778)"/><path d="M363.5-164h120v116h-120z" fill-opacity="0"/><path d="M370.23-101.08l52.8 34.47 53.76-34.53 6.7 7.87-60.47 39.23-59.52-39.2 6.73-7.85z" fill="#44dbf9"/><path d="M374.23-105.43L423.06-164l49.8 58.57-49.8 31.68-48.83-31.68z" fill="#fff"/><path d="M423.07-164v90.25l-48.84-31.68L423.07-164z" fill="#44dbf9"/><path d="M423.03-164v90.25l49.8-31.68-49.8-58.57z" fill="url(#l)"/><path d="M423.03-117.37l49.8 12-49.8 31.62v-43.62z" fill="#47a6da"/><path d="M423.07-73.75l-48.84-31.7 48.84-11.92v43.62z" fill="#90e0f9"/><path d="M423.03-54.03l60.48-39.23-6.76-7.87-53.7 34.52v12.57z" fill="url(#m)"/><path d="M473.12-89.76c.04-.07.04-.07.08-.07 3.04-3.1 3.04-8.14-.08-11.25l-13.54-13.6c-3.08-3.1-8.05-3.1-11.1 0l-13.58 13.6c-3.04 3.18-3.04 8.15 0 11.32l11.3 11.4c.44.4.66.96.66 1.5v21.2c-.05.76.25 1.38.8 1.93l5.15 5.18c.05.07.1.07.14.14.7.6 1.76.54 2.36-.15l4.96-4.97 3-3.04c.4-.4.4-1.03 0-1.45l-2.14-2.08c-.43-.4-.47-1.1-.08-1.6.04 0 .08-.05.08-.05l2.14-2.15c.4-.4.4-1.03 0-1.44l-2.14-2.14c-.43-.35-.47-1.04-.08-1.45 0-.08.04-.08.08-.15l2.14-2.14c.4-.4.4-1.03 0-1.44l-3-3.04v-1.1zm-19.1-21.67c2.48 0 4.5 2 4.5 4.5 0 2.47-2.02 4.54-4.5 4.54-2.45 0-4.46-2.06-4.46-4.54 0-2.5 2-4.5 4.45-4.5z" fill="#f3bf00"/><path d="M450.6-54.8c.2.23.48.32.77.3.53-.05.92-.5.87-1.03v-17.5c0-.36-.13-.68-.4-.9-.2-.13-.42-.2-.67-.17-.52.06-.9.55-.84 1.06v17.15c-.13.42-.03.84.28 1.1zM444.42-96.5h19.87c.8 0 1.2.42 1.2 1.24v.2c0 .82-.4 1.23-1.2 1.23H444.4c-.82 0-1.23-.4-1.23-1.23v-.2c0-.82.4-1.23 1.22-1.23zM444.42-92.2h19.87c.8 0 1.2.4 1.2 1.23v.2c0 .82-.4 1.23-1.2 1.23H444.4c-.82 0-1.23-.4-1.23-1.23v-.2c0-.82.4-1.23 1.22-1.23z" fill="#f38800" fill-opacity=".75"/><use xlink:href="#n" transform="matrix(1,0,0,1,333.5133549945847,-39.000000000000014) translate(58.88563368055556 21.52777777777778)"/><use xlink:href="#o" transform="matrix(1,0,0,1,333.5133549945847,-39.000000000000014) translate(65.55881076388889 53.79340277777778)"/><path d="M365.5-452h116v116h-116z" fill-opacity="0"/><path d="M423.27-367.42c2.53-2.73 5.66-4.78 9.17-6.05 1.75-2.73 4.1-5.07 6.73-6.92 4-2.63 8.68-4.1 13.56-4.1H453.4c1.96 0 3.82.3 5.67.7 2.54-5.96 4-12.5 4-19.42 0-26.93-21.85-48.78-48.78-48.78s-48.8 21.85-48.8 48.78c0 26.92 21.87 48.78 48.8 48.78 1.06 0 2.04 0 3.02-.1.58-4.78 2.63-9.27 5.95-12.88z" fill="url(#p)"/><path d="M423.27-367.42c2.53-2.73 5.66-4.78 9.17-6.05.68-1.07 1.56-2.14 2.44-3.12.48-1.45.97-3 1.36-4.67h4.4c3.7-2.15 7.8-3.22 12.1-3.22H453.4c1.94 0 3.8.3 5.65.7 2.54-5.96 4-12.5 4-19.42 0-26.93-21.85-48.78-48.78-48.78s-48.8 21.85-48.8 48.78c0 26.92 21.87 48.78 48.8 48.78 1.06 0 2.04 0 3.02-.1.58-4.78 2.63-9.27 5.95-12.88zm6.92-21.17h-31.8c-.8-4.57-1.18-9.45-1.18-14.62 0-3.32.2-6.64.5-9.76h33.16c.3 3.12.48 6.44.48 9.76 0 5.17-.4 10.05-1.17 14.63zm25.55-14.62c0 5.17-.97 10.05-2.63 14.63h-15.5c.67-4.57 1.06-9.55 1.06-14.62 0-3.32-.2-6.64-.5-9.76h16.4c.78 3.12 1.17 6.44 1.17 9.76zm-24.78-37.95c9.37 4.1 16.88 11.5 21.08 20.88h-14.83c-1.47-8.1-3.9-15.2-7.22-20.68l-.5-.87 1.47.68zm-17.26-3.5h1.18c6.14.67 12.1 10.33 14.92 24.38h-30.92c2.73-14.04 8.68-23.8 14.83-24.38zm-14.72 2.9l.1-.08c-3.52 5.56-6.15 12.97-7.7 21.56h-14.84c4.4-9.75 12.48-17.46 22.44-21.46zm-26.15 38.55c0-3.32.4-6.54 1.17-9.66v-.1h16.4c-.3 3.12-.5 6.44-.5 9.76 0 5.07.4 10.05 1.08 14.63h-15.52c-1.65-4.57-2.63-9.45-2.63-14.62zm6.24 21.95h13.27l.6 1.95c1.45 5.66 3.6 10.63 6.13 14.63-8.3-3.2-15.3-9.06-20-16.57zm20.88 0h28.68c-3.22 11.8-8.68 19.5-14.34 19.5-5.67 0-11.13-7.7-14.35-19.5z" fill="url(#q)"/><path d="M417.3-354.54c.54-4.78 2.58-9.27 5.85-12.88 2.53-2.73 5.7-4.78 9.2-6.05 1.76-2.73 4.05-5.07 6.78-6.92 4-2.63 8.67-4.1 13.5-4.1h.73c1.85 0 3.7.3 5.5.7 2.63-5.96 4.1-12.5 4.1-19.42 0-26.93-21.83-48.78-48.73-48.78 3.75 10.93 8.1 27.8 8.1 48.78 0 20.97-4.34 37.85-8.1 48.78 1.03 0 2.05 0 3.07-.1z" fill="url(#r)"/><path d="M481.5-350.4v-.07-.1c-.1-3.44-1.45-6.77-3.8-9.33-1.8-2-4.14-3.46-6.7-4.2-.65-3.8-2.58-7.25-5.45-9.9-3.4-3.1-7.95-4.82-12.57-4.7-3.74-.03-7.42 1.04-10.52 3.13-2.63 1.8-4.74 4.22-6.14 7.04-3.4.77-6.43 2.52-8.83 5.08-2.75 2.95-4.33 6.83-4.45 10.84v.22c.18 4.5 2.16 8.78 5.5 11.86 3.33 3.03 7.77 4.65 12.27 4.52.47 0 .94-.04 1.4-.08h23.92c.35 0 .64 0 .93-.1 3.7-.08 7.25-1.57 9.94-4.13 2.76-2.66 4.4-6.24 4.5-10.1z" fill="url(#s)"/><use xlink:href="#t" transform="matrix(1,0,0,1,335.5133549945847,-327) translate(41.16840277777778 21.52777777777778)"/><use xlink:href="#u" transform="matrix(1,0,0,1,335.5133549945847,-327) translate(48.27560763888889 53.79340277777778)"/><path d="M1195.95-20h109v99h-109z" fill-opacity="0"/><path d="M1268.3 41.22c0-10.9 8.8-19.77 19.68-19.77 7.07 0 13.27 3.74 16.75 9.4v-47.2c0-2.05-1.63-3.65-3.6-3.65h-101.6c-1.95 0-3.58 1.6-3.58 3.66v69c0 2.07 1.63 3.68 3.6 3.68h75.7c-4.35-3.75-6.96-9.32-6.96-15.12z" fill="url(#v)"/><path d="M1236 36.34c1.56.06 2.88-1.18 2.95-2.74v-.1-.34c-1.2-9.3-6.43-16.82-16.5-16.82-10.04 0-15.54 6.4-16.63 16.74-.14 1.64 1.02 3.08 2.64 3.26H1236z" fill="#6df"/><path d="M1222.55 18.6c-1.74-.02-3.45-.53-4.9-1.47l4.9 12.97 4.97-12.88c-1.5.9-3.22 1.4-4.97 1.4z" fill="#f2f2f2"/><path d="M1231.8 9.3c0 5.14-4.14 9.3-9.25 9.3-5.12 0-9.27-4.16-9.27-9.3 0-5.13 4.15-9.3 9.27-9.3 5.1 0 9.26 4.17 9.26 9.3zM1247.85 0h37.25c3 0 4.48 1.5 4.48 4.5S1288.1 9 1285.1 9h-37.25c-3 0-4.48-1.5-4.48-4.5s1.47-4.5 4.48-4.5zM1276.28 22.4h-28.44c-2.47 0-4.47 2-4.47 4.48 0 2.48 2 4.5 4.47 4.5h19.46c1.7-3.6 4.3-6.94 8.98-9z" fill="#6df"/><path d="M1304.95 41.22c0-9.44-7.6-17.06-16.95-17.06-9.36 0-16.95 7.62-16.95 17.06 0 5.76 2.85 10.8 7.2 13.93l-1.13 21.83c-.03 1.04.75 1.92 1.8 1.97.5 0 1.05-.22 1.42-.55l7.36-4.7 7.32 4.76c.7.7 1.9.7 2.64 0 .38-.33.58-.88.58-1.43l-.85-21.6c4.53-3.08 7.55-8.3 7.55-14.2z" fill="url(#w)"/><path d="M1284.68 49.3c-.55 0-1.06-.2-1.44-.58l-5.88-5.9c-.75-.82-.7-2.1.1-2.86.78-.72 1.98-.72 2.75 0l4.46 4.46 10.9-10.9c.83-.78 2.1-.7 2.86.1.7.77.7 1.98 0 2.75l-12.32 12.35c-.38.37-.9.6-1.44.6z" fill="#fff"/><use xlink:href="#x" transform="matrix(1,0,0,1,1165.95,88.00833333333333) translate(52.642361111111114 21.52777777777778)"/><use xlink:href="#y" transform="matrix(1,0,0,1,1165.95,88.00833333333333) translate(25.89539930555557 53.79340277777778)"/><path d="M1469.3-200h81.15v107h-81.14z" fill-opacity="0"/><path d="M1509.88-170.84c-22.4 0-40.57-6.3-40.57-14.6v77.83c0 7.94 17.86 14.5 40 14.6h.58c22.4 0 40.57-6.3 40.57-14.6v-77.85c0 8.14-18.18 14.6-40.57 14.6z" fill="url(#z)"/><path d="M1550.45-185.4c0 8.13-18.18 14.6-40.57 14.6-22.4 0-40.57-6.3-40.57-14.6s18.18-14.6 40.58-14.6 40.57 6.3 40.57 14.6" fill="#e8e8e8"/><path d="M1541.04-186.58c0 5.18-14.02 9.35-31.16 9.35s-31.16-4.17-31.16-9.35c0-5.17 14.02-9.27 31.16-9.27s31.16 4.17 31.16 9.27" fill="#50e6ff"/><path d="M1509.92-184.23c-8.77-.22-16.25.87-24.63 3.6 8.37 2.66 15.85 3.7 24.62 3.4 8.82.25 16.3-.86 24.63-3.66-8.38-2.6-15.86-3.6-24.63-3.33z" fill="#198ab3"/><path d="M1543.1-163.4c-2.1 0 .36 1.55-7.02 1.86-7.38.36-9.98 7.88-14.83 14.25-5.33 5.3-11.48 8.15-19 8.9-4.98 1.6-8.8 4.42-11.88 8.73-.9 1.83-2.46 3.03-4.5 3.3-1.72 0-5.4.5-5.4.5-1.65.34-3 .8-4.52 1.5.48 2.1 4.72 1.2 4.72 1.2-1.1 1.12-2.12 2-3.35 2.94 2.2.54 4.1.62 6.35.3 2.74 0 4.8-2.57 9.84-5.24 5-2.72 16.48 0 18.32 0 1.85 0 4.58-4.8 5.2-6.32.54 3.4-5.2 12.6-5.2 12.6 4.5-.3 8.2-2.5 10.52-6.27.48-.67 2.12-3.92 2.26-3.6.2.3 1.02 1.2 1.37 1.06.6-.54 1.1-1.08 1.57-1.7 3.48-4.98 5.67-9.75 7.24-15.62.4-1.52.4-7 4.23-9.26 3.77-2.27 4.32-4.36 4.32-4.54v-.3c-1.03-.64-1.78-1.3-2.53-2.2-.08-.22-.08-.48 0-.7.67 1.24 1.7 2.04 3.07 2.4 0 0 1.3-3.8-.76-3.8zm-7.9 6.67h-.42c-.68.13-1.3-.04-1.85-.5.48-1.32 1.85-2.13 3.28-1.9.36.93-.06 2-1 2.4zm3.54 0c.55-1.38 1.16-2.45 2.05-3.65-.9 1.3-1.58 2.45-2.2 3.92zm2.26-3.2c-.35 1.06-.48 2.04-.48 3.2-.14-.84-.14-1.56 0-2.4-.48.8-.82 1.56-1.03 2.44.27-1.1.68-2.03 1.36-3zM1530.23-130.66s-3.1 2.9-3.23 3.9c0 0 3.42 2.6 5.63 2.02-.98-2.02-1.7-3.8-2.4-5.92z" fill="#f2f2f2"/><use xlink:href="#A" transform="matrix(1,0,0,1,1439.3083333333334,-84.00000000000001) translate(26.148654513888893 21.52777777777778)"/><path d="M920-28h92.8V88H920z" fill-opacity="0"/><path d="M966.5 69.45V88h-.8s0-.1-.04-.1h-.7c-.28-.08-.5-.26-.8-.26h-.04c-13.25-7.5-27.7-15.96-40.87-23.46-.97-.62-3.44-1.6-3.25-2.94l.14-18.56c.05.8.5 1.43 1.2 1.8l42.32 24.25c.18.18.37.27.65.36.75.26 1.4.35 2.2.35zm-.7-21.95c-.56-.1-1.03-.18-1.5-.45-.22 0-.4-.08-.64-.17l-42.3-24.36c-.7-.35-1.17-.98-1.22-1.78L920 39.3c-.2 1.33 2.28 2.23 3.25 2.94 13.16 7.5 27.62 15.97 40.87 23.37h.05l.65.28h.14c.23.1.42.1.7.18h.83V47.5zm-1.5-22.3c-1.1-.45-41.88-24.17-42.95-24.7-.7-.28-1.16-.9-1.2-1.7L920 17.35c-.2 1.25 2.28 2.32 3.25 2.85 13.16 7.6 27.62 16.06 40.87 23.47h.05c.28.17.5.17.8.26.22.1.4.1.7.18H966.5V25.57c-.8 0-1.45-.1-2.2-.36z" fill="#0078d4"/><path d="M995.03.2l-28.17 16.16c-.7.32-1.42.32-2.13 0L937.86 1.1c-1-.58-1.36-1.9-.77-2.9.17-.35.4-.57.76-.78l28.17-16.17c.65-.32 1.42-.32 2.14 0l26.86 15.28c1 .53 1.36 1.82.83 2.85-.24.35-.48.6-.83.82z" fill="#003067"/><path d="M1012.66-.85v.1l-.18.35c-.24.36-.5.62-.88.9l-42 24.34c-.7.36-1.3.54-2.1.63-.27.1-.5.1-.82.1h-.2V44.1c.3 0 .52 0 .8-.08.5 0 .93-.1 1.4-.27.3-.08.55-.17.78-.35l30.7-17.75 2.78-1.6 8.52-5c.18-.1.32-.27.5-.36.14-.1.2-.28.33-.37v-.1h.04v-.08c.14 0 .14-.17.18-.26v-.1l.1-.1c0-.08.04-.17.04-.35l.14-18.55c0 .17-.05.26-.14.35zm0 22.04l-.18.43c-.24.36-.5.63-.88.8l-.33.18-.97.55-.8.45-4.9 2.85-8.6 5-3.85 2.22-1.95 1.16-3.9 2.32-5.6 3.22-6.38 3.65-4.73 2.68c-.65.45-1.3.62-2.1.7h-.82c-.05.1-.1.1-.2.1v-.1 18.57h.8c.5 0 .93-.1 1.4-.27.3-.1.55-.18.78-.36l6.57-3.83 3.2-1.78 7.36-4.28 3.83-2.23 2.04-1.15 3.85-2.32 15.14-8.74c.18-.1.32-.28.5-.37.14-.1.2-.18.33-.35v-.1h.04c.14-.17.14-.26.18-.44h.1c0-.18.04-.27.04-.45l.14-18.56c0 .18-.05.27-.14.45zm0 21.93v.1l-.18.35c-.28.35-.56.62-.88.8l-42 24.35c-.65.36-1.3.54-2.1.63-.27.1-.5.1-.82.1h-.2V88h.8c.5-.1.93-.18 1.4-.36 1.93-.7 41.06-23.8 42.78-24.7.18-.1.32-.18.5-.36l.33-.27v-.08h.04v-.1c.14-.08.14-.26.18-.35.1-.17 0-.1.1-.1 0-.07.04-.25.04-.43l.14-18.56c0 .18-.05.27-.14.45z" fill="#005ba1"/><path d="M1011.6 44.44l-42 24.25c-1.94 1-4.07 1-6.02 0L921.4 44.43c-1.67-1-1.67-2.42-.1-3.43 13.82 8.1 28.84 16.78 42.74 24.66.28 0 .47.1.74.2 1.67.4 3.16.3 4.64-.5.2-.1 42-24.25 42.1-24.35 1 .3 1.47 1.32 1.2 2.33-.2.5-.56.9-1.12 1.1zm-.1-25.46c0 .1 0 .1-.08.1 0 0-41.9 24.25-42 24.35-1.67.8-3.52.9-5.28.2h-.1c-13.9-7.78-28.92-16.57-42.74-24.55-1.57.9-1.57 2.43.1 3.44l42.18 24.25c1.95 1 4.08 1 6.02 0l42-24.25c.56-.2.93-.6 1.1-1.2.3-1.02-.17-2.04-1.2-2.34zm.1-18.5l-42 24.36c-2.03 1-4.07 1-6.02 0L921.4.5c-1.02-.3-1.5-1.32-1.2-2.23.18-.6.55-1 1.2-1.1l41.9-24.46c1.95-.9 4.08-.9 6.03 0l42.18 24.36c1.68 1 1.68 2.52.1 3.43zM995-3.44L968.13-18.7c-.65-.4-1.4-.4-2.13 0L937.8-2.54c-.27.2-.55.4-.73.7-.56 1.02-.28 2.33.74 2.94l26.9 15.25c.73.3 1.47.3 2.12 0L995.02.2c.36-.2.64-.42.82-.82.56-1 .2-2.32-.83-2.83zm13.9 64.16l-.08-8.48v-.2c-.1-.1-.28-.1-.37-.1L987.5 64.04c-.1 0-.1.1-.1.2v8.5c0 .1 0 .1.1.2 0 .1.18.1.37.1l20.86-12.13c.1 0 .18-.1.18-.2zm-.17-21.7l-20.86 12c-.2.1-.28.1-.37 0-.1-.1-.1-.1-.1-.2v-8.48c0-.1 0-.2.1-.2L1008.45 30c.1 0 .28 0 .37.1v.2l.1 8.48c0 .1-.1.1-.2.2zm0-21.94L987.87 29.1v-.02c-.2.1-.37 0-.37-.1-.1 0-.1-.1-.1-.1V20.4c0-.1 0-.2.1-.3l20.95-12.03c.1-.1.28-.1.37.1v.1l.1 8.5c0 .1-.1.2-.2.3z" fill="#5ea0ef"/><path d="M958.56 70.98c1.03.67 1.6 1.66 1.66 2.88v4.7c0 1.1-.75 1.53-1.67.98l-4.12-2.37c-1.02-.66-1.6-1.66-1.67-2.87v-4.75c0-1.05.76-1.44 1.7-.94zm-4.1-24.24c-.94-.55-1.7-.16-1.7.94v4.7c.07 1.2.65 2.2 1.67 2.87l4.12 2.37c.92.55 1.67.1 1.67-.94v-4.74c-.06-1.22-.64-2.2-1.66-2.88zm0-21.97c-.94-.5-1.7-.1-1.7.94v4.7c.07 1.27.65 2.27 1.67 2.93l4.12 2.37c.92.5 1.67.06 1.67-1V30c-.06-1.2-.63-2.2-1.66-2.86z" fill="#50e6ff"/><use xlink:href="#B" transform="matrix(1,0,0,1,890,96.99999999999997) translate(34.746527777777786 21.52777777777778)"/><use xlink:href="#C" transform="matrix(1,0,0,1,890,96.99999999999997) translate(41.84830729166667 53.79340277777778)"/><path d="M372.98 124H473.5v116H373z" fill-opacity="0"/><path d="M464.97 187.2l-11.1 6.53-11.18 6.45-19.45 11.4-19.44-11.4-11.1-6.46-11.18-6.5 8.77-5.1 32.95 19.2 32.96-19.2 8.77 5.1z" fill="#3899e4"/><path d="M464.97 187.1v11.08l-41.72 24.3-41.73-24.3V187.1l11.2 6.5 11.08 6.42 19.45 11.4L442.7 200l11.17-6.4 11.1-6.52z" fill="#0087be"/><path d="M464.97 165.8l-11.1 6.5-7.18 4.18-4 2.3-19.45 11.34-19.44-11.35-4-2.3-7.1-4.18-11.18-6.5 41.73-24.4 41.72 24.4z" fill="#3899e4"/><path d="M464.97 165.88v11.07l-8.76 5.13-32.95 19.18-32.96-19.18-8.78-5.13v-11.07l11.2 6.44 7.08 4.17 4 2.3 19.45 11.3 19.44-11.3 4-2.3 7.17-4.2 11.1-6.42z" fill="#0087be"/><path d="M473.5 154.94v54.22c0 1.3-.64 2.43-1.8 3.12l-46.6 27.2c-.6.35-1.15.52-1.85.52v-57.87l49.76-29c.36.6.5 1.12.5 1.8z" fill="#3899e4" fill-opacity=".7"/><path d="M473 153.06l-49.77 29v.06l-49.76-29.06c.3-.58.8-1 1.3-1.34l46.67-27.2c1.1-.7 2.5-.7 3.68 0l46.58 27.2c.6.35 1 .76 1.3 1.34z" fill="#71f1ff" fill-opacity=".6"/><path d="M423.25 182.13V240c-.7 0-1.26-.17-1.86-.52l-46.6-27.2c-1.17-.7-1.82-1.82-1.82-3.12v-54.22c0-.7.15-1.22.5-1.82z" fill="#63d3ff" fill-opacity=".6"/><use xlink:href="#D" transform="matrix(1,0,0,1,342.9800216612514,249) translate(9.276041666666657 21.52777777777778)"/><use xlink:href="#E" transform="matrix(1,0,0,1,342.9800216612514,249) translate(72.18836805555554 21.52777777777778)"/><path d="M424-196.38h-.96v-75.35h.95zM424-324h-.96v-11.5h.95z" stroke="#3a414a" stroke-width=".05" fill="#3a414a"/><path d="M424-335.5h-.96v-.5h.95z" fill="#3a414a"/><path stroke="#3a414a" stroke-width=".05" fill="#3a414a"/><path d="M423.5-181.62l-4.62-14.26h9.27z" fill="#3a414a"/><path d="M423.5-180.08l-5.28-16.28h10.58zm-3.97-15.33l3.98 12.25 4-12.26zM424 83.62h-.96V17.27h.95zM424-36h-.96v-11.5h.95z" stroke="#3a414a" stroke-width=".05" fill="#3a414a"/><path d="M424-47.5h-.96v-.5h.95z" fill="#3a414a"/><path stroke="#3a414a" stroke-width=".05" fill="#3a414a"/><path d="M423.5 98.38l-4.62-14.26h9.27z" fill="#3a414a"/><path d="M423.5 99.92l-5.28-16.28h10.58zm-3.97-15.33l3.98 12.25 4-12.26z" stroke="#3a414a" stroke-width=".05" fill="#3a414a"/><path d="M482.02-394l7.35.16 7.6.48 7.43.78 7.25 1.07 7.13 1.35 7.02 1.65 6.95 1.94 6.9 2.25 6.9 2.55 6.9 2.9 6.94 3.27 7 3.67 7.12 4.1 7.25 4.6 7.43 5.16 7.64 5.8 7.92 6.56 8.25 7.43 8.66 8.5 9.17 9.75 9.8 11.37 10.63 13.43 11.76 16.2 13.4 20.2 16.1 26.66 22.45 41.03 73.7 143.5 11.12 18.4 8.54 12.9 7.06 9.73 6.07 7.67 5.35 6.2 4.8 5.12 4.38 4.3 4.04 3.64 3.76 3.1 3.54 2.7 3.34 2.32 3.18 2.02 3.05 1.77 2.96 1.53 2.84 1.35 2.78 1.16 2.7 1.02 2.67.87 2.63.72 2.6.6 2.6.5 2.6.4 2.4.24" stroke="#3a414a" stroke-linejoin="round" fill="none"/><path d="M482.04-394.46l-.02.95-.5-.02v-.96z" stroke="#3a414a" stroke-width=".05" fill="#3a414a"/><path d="M898.38 40.07l-14.06 5.2-.38-9.26z" stroke="#3a414a" fill="#3a414a"/><path d="M1017.16 21.67l.34-.26.47-.32.56-.36.67-.4.83-.44 1.04-.5 1.3-.56 1.7-.64 2.2-.74 2.98-.86 4.12-1 5.86-1.16 8.53-1.32 12.54-1.4 17.88-1.27 22.76-.66 23.53.3 19.44 1.02 13.95 1.32 9.52 1.3 6.5 1.18 2.94.66m14.8 22.27l-.35.27-.47.33-.56.36-.67.38-.83.45-1.04.5-1.3.55-1.7.65-2.2.73-2.98.86-4.12 1-5.86 1.16-8.53 1.32-12.55 1.4-17.88 1.27-22.76.66-23.52-.28-19.44-1.04-13.94-1.3-9.52-1.32-6.5-1.18-2.94-.66" stroke="#3a414a" fill="none"/><path d="M1017.48 22.02l-.4.33-.6-.73.4-.32z" stroke="#3a414a" stroke-width=".05" fill="#3a414a"/><path d="M1190.42 20.92l-14.97-.9 3.4-8.64z" stroke="#3a414a" fill="#3a414a"/><path d="M1192.28 37.88l-.4.33-.6-.72.38-.33z" stroke="#3a414a" stroke-width=".05" fill="#3a414a"/><path d="M1018.33 38.58l14.97.92-3.4 8.62z" stroke="#3a414a" fill="#3a414a"/><path d="M1307.67 29.1l2.6.15 2.48.26 2.4.36 2.34.45 2.27.54 2.23.63 2.2.7 2.16.8 2.15.92 2.16 1 2.15 1.13 2.2 1.25 2.2 1.4 2.24 1.57 2.32 1.76 2.4 2 2.5 2.26 2.68 2.6 2.86 3.06 3.16 3.66 3.6 4.54 4.35 6 6.27 9.48 22.74 36.23 4.34 5.98 3.56 4.52 3.13 3.62 2.84 3.03 2.64 2.58 2.5 2.24 2.36 1.95 2.28 1.74 2.22 1.53 2.17 1.38 2.14 1.24 2.12 1.1 2.1 1 2.12.9 2.13.8 2.16.7.73.2-.26.9-.74-.2-2.2-.72-2.16-.8-2.15-.9-2.15-1.02-2.15-1.12-2.18-1.26-2.2-1.4-2.26-1.57-2.3-1.75-2.4-2-2.53-2.26-2.66-2.6-2.87-3.06-3.16-3.66-3.6-4.54-4.35-6-22.75-36.27-6.24-9.42-4.34-5.98-3.58-4.5-3.12-3.64-2.84-3.03-2.64-2.58-2.48-2.23-2.37-1.97-2.28-1.73-2.23-1.55-2.18-1.37-2.14-1.24-2.13-1.1-2.1-1-2.12-.9-2.12-.78-2.16-.7-2.2-.62-2.22-.52-2.3-.44-2.37-.35-2.45-.25-2.55-.16-2.2-.05.03-.96z" stroke="#3a414a" stroke-width=".05" fill="#3a414a"/><path d="M1305.47 29.04l-.02.95-.5-.02v-.95zm-.74-.02v.96l-.7-.02-.76-.97z" fill="#3a414a"/><path stroke="#3a414a" stroke-width=".05" fill="#3a414a"/><path d="M1448.28 148.78l-14.77 2.66 1.27-9.2z" fill="#3a414a"/><path d="M1449.8 149l-16.85 3.02 1.44-10.48zm-15.73 1.86l12.68-2.3-11.6-5.6z" stroke="#3a414a" stroke-width=".05" fill="#3a414a"/><path d="M1322 31.47l2.2.7 2.16.8 2.15.92 2.16 1 2.15 1.13 2.2 1.25 2.2 1.4 2.24 1.57 2.32 1.76 2.4 2 2.5 2.26 2.68 2.6 2.86 3.06 3.16 3.66 3.6 4.54 4.35 6.02 22.76 36.25 6.24 9.43 4.34 5.98 3.56 4.52 3.13 3.62 2.84 3.03 2.64 2.58 2.5 2.24 2.36 1.95 2.28 1.74 2.22 1.53 2.17 1.38 2.14 1.24 2.12 1.1 2.1 1 2.12.9 2.13.8 2.16.7 2.2.6 2.23.52 2.3.44 2.37.35 2.45.26 2.55.17 2.2.04-.03.96-2.2-.04-2.6-.16-2.5-.27-2.4-.36-2.34-.45-2.27-.54-2.23-.62-2.2-.72-2.16-.8-2.15-.9-2.15-1.02-2.15-1.12-2.18-1.26-2.2-1.4-2.26-1.57-2.3-1.75-2.4-2-2.53-2.26-2.66-2.6-2.87-3.06-3.16-3.66-3.6-4.54-4.35-6-6.26-9.47-22.74-36.23-4.33-5.97-3.58-4.5-3.12-3.64-2.84-3.03-2.64-2.58-2.48-2.23-2.37-1.97-2.28-1.73-2.23-1.55-2.18-1.37-2.14-1.24-2.13-1.1-2.1-1-2.12-.9-2.12-.78-2.16-.7-.72-.2.26-.92z" stroke="#3a414a" stroke-width=".05" fill="#3a414a"/><path d="M1449.88 148.53v.94h-.53l.02-.96z" fill="#3a414a"/><path stroke="#3a414a" stroke-width=".05" fill="#3a414a"/><path d="M1320.06 36.25l-13.5-6.53 14.76-2.66z" fill="#3a414a"/><path d="M1320.44 36.96l-15.4-7.45 16.84-3.02zm-12.36-7.03l11.6 5.6 1.08-7.88z" stroke="#3a414a" stroke-width=".05" fill="#3a414a"/><path d="M1453.33-143.56l-1.18.38-2 .75-2 .84-2.02.95-2.03 1.06-2.05 1.2-2.1 1.33-2.13 1.5-2.2 1.66-2.28 1.87-2.37 2.14-2.5 2.45-2.62 2.8-2.82 3.27-3.05 3.85-3.37 4.65-3.8 5.75-4.5 7.46-5.84 10.63-18.73 38.92-11.1 22.6-5.83 10.66-4.53 7.5-3.84 5.8-3.4 4.66-3.07 3.9-2.85 3.3-2.65 2.82-2.5 2.47-2.4 2.15-2.32 1.9-2.23 1.7-2.17 1.52-2.13 1.35-2.1 1.2-2.05 1.08-2.05.96-2.04.86-2.04.76-2.05.67-2.07.58-2.1.5-2.14.4-2.18.32-2.24.23-2.3.15-1.88.04-.02-.95 1.86-.04 2.27-.14 2.2-.23 2.13-.3 2.1-.4 2.06-.5 2.03-.56 2-.66 2-.74 2.02-.84 2-.95 2.04-1.06 2.05-1.2 2.1-1.32 2.14-1.5 2.2-1.66 2.27-1.9 2.4-2.12 2.47-2.44 2.64-2.8 2.82-3.27 3.06-3.87 3.37-4.64 3.8-5.77 4.52-7.46 5.83-10.63 11.08-22.58 18.74-38.93 5.84-10.67 4.53-7.5 3.83-5.78 3.4-4.68 3.07-3.9 2.84-3.28 2.66-2.84 2.52-2.47 2.4-2.15 2.3-1.9 2.24-1.7 2.17-1.5 2.13-1.36 2.1-1.22 2.05-1.08 2.06-.96 2.04-.86 2.04-.76 1.2-.4z" stroke="#3a414a" stroke-width=".05" fill="#3a414a"/><path d="M1304.73 29.98l-.66.02-.74-.94 1.4-.03zm.74 0h-.52v-.95h.5z" fill="#3a414a"/><path stroke="#3a414a" stroke-width=".05" fill="#3a414a"/><path d="M1467.7-146.25l-13.38 6.75-1.42-9.16z" fill="#3a414a"/><path d="M1469.23-146.5l-15.28 7.72-1.62-10.46zm-14.55 6.28l11.5-5.8-12.7-2.07z" stroke="#3a414a" stroke-width=".05" fill="#3a414a"/><path d="M1468.82-146l-1.86.02-2.27.15-2.2.23-2.15.3-2.1.4-2.05.5-2.03.56-2.02.66-2 .75-2 .84-2.02.95-2.03 1.06-2.05 1.2-2.1 1.33-2.13 1.5-2.2 1.66-2.28 1.87-2.37 2.14-2.5 2.45-2.62 2.8-2.82 3.27-3.05 3.85-3.37 4.65-3.8 5.75-4.5 7.46-5.84 10.63-11.08 22.6-18.74 38.92-5.84 10.66-4.53 7.5-3.84 5.8-3.4 4.66-3.07 3.9-2.85 3.3-2.65 2.82-2.5 2.47-2.4 2.15-2.32 1.9-2.23 1.7-2.17 1.52-2.13 1.35-2.1 1.2-2.05 1.08-2.05.96-2.04.86-2.04.76-1.2.4-.3-.9 1.2-.4 2-.74 2-.84 2-.95 2.04-1.06 2.05-1.2 2.1-1.32 2.14-1.5 2.2-1.66 2.27-1.9 2.4-2.12 2.47-2.44 2.64-2.8 2.82-3.27 3.06-3.87 3.37-4.64 3.8-5.77 4.52-7.46 5.82-10.63 18.72-38.9 11.1-22.62 5.84-10.66 4.53-7.5 3.83-5.78 3.4-4.68 3.07-3.9 2.84-3.28 2.66-2.84 2.52-2.47 2.4-2.15 2.3-1.9 2.24-1.7 2.17-1.5 2.13-1.36 2.1-1.22 2.05-1.08 2.06-.96 2.04-.86 2.04-.76 2.05-.66 2.06-.58 2.1-.5 2.13-.4 2.18-.32 2.23-.24 2.32-.15 1.88-.03z" stroke="#3a414a" stroke-width=".05" fill="#3a414a"/><path d="M1472.32-146.1l-3 .07-.52.02-.02-.96h.53l3-.08z" fill="#3a414a"/><path stroke="#3a414a" stroke-width=".05" fill="#3a414a"/><path d="M1321.35 31.67l-14.8-2.4 13.4-6.77z" fill="#3a414a"/><path d="M1321.92 32.24l-16.9-2.75 15.3-7.7zm-13.85-3.22l12.72 2.07-1.23-7.88zM1519.13 104l-.27.43-.3.42-.77-.54.27-.4.26-.4zm-17.45-.1l.3.4-.8.55-.3-.43-.25-.4.8-.52zm19.95-5.38l-.56 1.52-.15.35-.88-.38.14-.33.56-1.5zm-22.06 1.15l.15.35-.88.37-.16-.4-.55-1.48.9-.33zm23.77-6.9l-.05.22-.5 1.7-.9-.25.47-1.7.04-.2zm-25.96-.07l.48 1.75-.9.25-.5-1.76-.04-.17.92-.2zm27.24-5.74l-.32 1.7-.06.26-.92-.22.05-.25.32-1.67zm-28.25 1.4l.08.34-.93.22-.08-.35-.3-1.6.93-.2zm29.3-7.27l-.16 1.22-.14.75-.93-.18.14-.74.17-1.2zm-30.5.94l.16.85-.93.16-.17-.87-.16-1.1.94-.14zm31.38-6.82l-.3 1.96-.93-.14.3-1.96zm-32.1 1.82l-.95.13-.3-1.95.95-.14zm32.8-7.74l-.2 1.97-.94-.1.22-1.97zm-33.6 1.87l-.95.1-.2-1.97.94-.1zm34.23-7.77l-.2 1.96-.95-.1.2-1.96zm-34.85 1.87l-.94.1-.22-1.98.95-.1zm35.43-7.8l-.04.7-.13 1.3-.96-.1.13-1.28.05-.7zm-36.2.34l.16 1.56-.94.1-.17-1.57v-.43l.94-.06zm36.57-6.26l-.12 1.97-.94-.05.12-1.97zm-36.84 1.9l-.95.07-.13-1.96.95-.06zm37.2-7.83l-.12 2-.95-.07.12-1.98zm-37.57 1.93l-.95.05-.12-1.97.95-.05zm37.94-7.85l-.13 1.98-.94-.06.12-1.98zm-38.3 1.92l-.95.06-.12-1.98.94-.06zm38.56-7.87l-.05 1.98h-.95l.05-2zm-38.9 1.96h-.96l-.04-1.97.95-.02zm39.02-7.9l-.04 1.97-.94-.02.04-1.98zm-39.15 1.95l-.95.02-.04-1.98.96-.03zm39.27-7.9l-.04 1.98-.95-.02.04-1.97zm-39.4 1.96l-.94.03-.04-1.98.94-.02zm39.52-7.88l-.05 1.97-.95-.02.04-1.98zm-39.64 1.96h-.95l-.03-1.96.95-.02zm39.76-7.9l-.04 1.98-.95-.02.04-1.98zm-39.88 1.96l-.95.02-.05-1.98.95-.02zM1530.3 6l-.94.02-.04-1.98.95-.02zm-39.87-1.96l-.04 1.98-.96-.02.04-1.98zM1530.2.06l-.96.02-.04-1.98.95-.02zm-39.64-1.96l-.05 1.98-.94-.02.05-1.98zm39.5-3.98l-.94.02-.04-1.98.95-.02zm-39.38-1.96l-.04 1.98-.95-.02.03-1.98zm39.27-3.97h-.95l-.04-1.97.95-.02zm-39.15-1.97l-.04 1.97h-.95l.05-2zm39.03-3.98l-.95.02-.04-1.98.95-.03zm-38.9-1.96l-.05 1.97-.95-.02.04-1.98zm38.63-4l-.95.05-.1-1.97.94-.06zm-38.3-1.92l-.12 1.97-.95-.05.1-1.98zm37.94-4l-.95.05-.12-1.98.95-.06zm-37.57-1.93l-.12 1.98-.94-.06.12-1.98zm37.2-4l-.94.05-.13-1.98.94-.06zM1492-37.5l-.13 1.98-.94-.06.12-1.98zm36.44-4.43l.03.4-.95.07-.02-.4-.16-1.55.94-.1zm-36.02-1.48l-.13 1.26-.06.7-.95-.07.04-.7.13-1.28zm35.46-4.04l-.95.1-.2-1.97.94-.1zm-34.85-1.87l-.2 1.98-.95-.1.2-1.97zm34.24-4.03l-.95.1-.2-1.97.94-.1zm-33.63-1.87l-.2 1.97-.95-.1.2-1.97zm32.9-4.04l-.94.14-.27-1.9h.96zm-32.4.14l-.93-.14.27-1.76h.96zm26.94-24.94l.55 1.5-.9.33-.54-1.5-.16-.35.88-.36zm-21.36 0l-.14.33-.56 1.48-.9-.33.57-1.5.14-.37zm19.15-4.4l.26.4-.8.52-.25-.4-.3-.4.8-.55zm-16.9.1l-.28.42-.27.4-.8-.5.26-.43.3-.42z" stroke="#3a414a" stroke-width=".05" fill="#3a414a"/><path d="M1518.57-88.88l-.76.58-.3-.4.76-.6z" fill="#3a414a"/><path stroke="#3a414a" stroke-width=".05" fill="#3a414a"/><path d="M1518.57 104.86l-.3.4-.77-.57.3-.42zM1502.26 104.7l-.76.56-.3-.4.75-.58z" stroke="#3a414a" stroke-width=".05" fill="#3a414a"/><path d="M1502.26-88.7l-.3.4-.77-.58.3-.4z" fill="#3a414a"/><path stroke="#3a414a" stroke-width=".05" fill="#3a414a"/><path d="M-183.6-196l-.1-.47-1.3-8.38-1-8.53-.64-8.68-.28-8.86.1-9.07.48-9.3.9-9.55 1.35-9.86 1.84-10.2 2.36-10.54 2.93-10.93 3.56-11.37 4.25-11.83 5.04-12.34 5.9-12.9 6.85-13.47 7.94-14.08 9.12-14.73 10.46-15.4 11.94-16.06 13.55-16.73 15.3-17.36 17.2-17.94 19.2-18.4 21.27-18.75L-2-530.65l25.43-18.9 27.4-18.6 29.15-18.1 30.68-17.28 31.9-16.26 32.78-15 33.32-13.6 33.5-12.08 33.4-10.48 33-8.85 32.4-7.27 31.67-5.7L403.4-697l29.83-2.83 28.82-1.52 27.8-.3 26.82.83 25.83 1.9 24.9 2.86 23.97 3.8 23.13 4.65 22.33 5.47 21.57 6.26 20.88 7 20.22 7.77 19.62 8.5 19.06 9.2 18.55 9.93 18.08 10.7 17.64 11.44 17.24 12.24 16.87 13.1 16.53 13.96 16.2 14.9 15.93 15.92 15.66 17 15.38 18.2 15.14 19.52 14.9 20.95 3.44 5.13" stroke="#3a414a" stroke-linejoin="round" fill="none"/><path d="M-180.36-181.6l-7.64-12.9 9.04-2.02z" stroke="#3a414a" fill="#3a414a"/><path d="M939.7-460.43l.3.43" stroke="#3a414a" fill="none"/><path d="M-106.58-109.4l6.58-4.62 20.7-15.83 22.18-18.5 25.55-23.23 37.22-36.9 83.9-85.9 19.24-17.5 15.5-12.93 13.56-10.4 12.4-8.7 11.7-7.48 11.2-6.53 10.93-5.78 10.76-5.12 10.74-4.56 10.82-4.07 10.98-3.6 11.23-3.2 11.6-2.75 12.05-2.35 12.62-1.9 13.32-1.45 14.18-.94 15.2-.38h.9" stroke="#3a414a" stroke-linejoin="round" fill="none"/><path d="M-118.67-100.93l9.02-11.98 5.32 7.58z" stroke="#3a414a" fill="#3a414a"/><path d="M319-393.52h-.5v-.95h.5z" stroke="#3a414a" stroke-width=".05" fill="#3a414a"/><path d="M-113.58-105.3l19.36-13.5 20.45-15.6 21.94-18.26 25.3-22.92 37.06-36.62 82.06-83.7 19.05-17.28 15.33-12.76 13.42-10.24 12.28-8.58 11.55-7.37 11.08-6.43 10.8-5.67 10.66-5.04 10.62-4.5 10.7-4 10.85-3.55 11.1-3.13 11.48-2.7 11.93-2.3 12.5-1.88 13.18-1.4 13.52-.9" stroke="#3a414a" stroke-linejoin="round" fill="none"/><path d="M-113.57-105.3l-.43.3" stroke="#3a414a" fill="none"/><path d="M317.38-393.96L303.23-389l-.22-9.26z" stroke="#3a414a" fill="#3a414a"/><path d="M1044.38 16a6 6 0 0 1 6-6h108a6 6 0 0 1 6 6v28a6 6 0 0 1-6 6h-108a6 6 0 0 1-6-6z" fill="none"/><use xlink:href="#F" transform="matrix(1,0,0,1,1044.375,10) translate(2.255859374999986 24.850260416666668)"/><use xlink:href="#G" transform="matrix(1,0,0,1,1044.375,10) translate(41.85221354166666 24.850260416666668)"/><use xlink:href="#H" transform="matrix(1,0,0,1,1044.375,10) translate(54.79492187499999 24.850260416666668)"/><use xlink:href="#I" transform="matrix(1,0,0,1,1044.375,10) translate(88.96158854166667 24.850260416666668)"/><path d="M481.5-714a6 6 0 0 1 6-6h108a6 6 0 0 1 6 6v28a6 6 0 0 1-6 6h-108a6 6 0 0 1-6-6z" fill="none"/><use xlink:href="#J" transform="matrix(1,0,0,1,481.5133549945847,-720) translate(42.998046875 24.850260416666668)"/><path d="M1380 1a6 6 0 0 1 6-6h58.12a6 6 0 0 1 6 6v27.5a6 6 0 0 1-6 6H1386a6 6 0 0 1-6-6z" fill="none"/><use xlink:href="#K" transform="matrix(1,0,0,1,1380,-5) translate(20.67578125 15.170572916666664)"/><use xlink:href="#L" transform="matrix(1,0,0,1,1380,-5) translate(0.054036458333328596 34.529947916666664)"/><path d="M496.36-393.26l6.52.68 7.25 1.07 7.13 1.35 7.02 1.65 6.95 1.94 6.9 2.25 6.9 2.55 6.9 2.9 6.95 3.27 7 3.67 7.12 4.1 7.25 4.6 7.43 5.16 7.64 5.8 7.92 6.56 8.25 7.43 8.64 8.5 9.17 9.75 9.8 11.37 10.64 13.43L661.5-279l13.4 20.2 16.1 26.66 22.45 41.03 73.7 143.5 11.1 18.4 8.57 12.9 7.06 9.73 6.07 7.67 5.35 6.2 4.8 5.12 4.38 4.3 4.04 3.64 3.76 3.1 3.54 2.7 3.34 2.32 3.18 2.02 3.05 1.77 2.93 1.53 2.85 1.35 2.78 1.16 2.7 1.02 2.67.87 2.63.72 2.6.6 2.6.5 2.6.4 2.6.26 2.62.17 2.65.05 2.7-.05 2.73-.18 2.82-.3 2.1-.3" stroke="#3a414a" stroke-linejoin="round" fill="none"/><path d="M481.62-393.93l14.46-4-.42 9.28z" stroke="#3a414a" fill="#3a414a"/><path d="M897.97 40.07l.5-.07" stroke="#3a414a" fill="none"/><path d="M1003.68-390.54V-362h-99.5v-28.54z" fill="#0039bb"/><path d="M902.82-391.6h99.3v27.93h-99.3z" fill="#fff"/><path d="M1003.68-427.52v61.85h-99.5v-37.98c8.75 1.74 17.1-1.1 22.88-7.85l26.17 16.82 50.45-32.84z" fill="#0077d3"/><path d="M928.86-418.05v3.66l24.4 15.36 46.55-30.3V-433z" fill="#0039bb"/><path d="M932.5-433h67.3l-46.56 30.3-24.42-15.37c3.05-4.6 4.26-9.45 3.7-14.93zM925.65-437.55c2.4 4.66 2.66 10.05.8 14.95-.98 2.83-2.86 4.93-5.55 6.3-.86.46-1.84.7-2.8.7-2.6 0-4.76-1.15-6.22-3.22l-.6-.88c-1.43 1.68-3.34 2.52-5.54 2.37-2.63.2-4.87-1.76-5.06-4.32 0-.27 0-.5.04-.8-.08-2.37 1.3-4.44 3.55-5.35 2.14-.7 4.05-1.03 6.3-1.1v-.47c.1-.84 0-1.57-.38-2.37-.5-.57-1.2-.88-1.92-.84-1.27-.08-2.43.76-2.7 2-.03.3-.3.52-.6.56l-3.25-.35c-.34-.07-.56-.34-.52-.68.8-3.86 4.3-5.05 7.53-5.05 1.95-.04 3.63.54 5.13 1.72 1.57 1.5 1.46 3.48 1.46 5.66v5.12c0 1.1.45 2.14 1.24 2.98.37.27.78.42 1.27.42 1.57 0 3.37-1.53 4.34-3.97 1.5-3.67 1.4-7.76-.26-11.35-2.27-4.2-7.7-6.54-12.98-6.54-3.15-.08-5.88.72-8.46 2.48-7 5.1-8.76 14.6-4 21.83 3.17 4.63 8.12 7.15 13.8 7.04 3.1 0 6.15-.82 8.8-2.38.68-.4 1.58-.2 2 .5v.03c.36.65.14 1.5-.54 1.87h-.03c-3.16 1.9-6.83 2.95-10.53 2.9-6.48.16-12.58-2.94-16.3-8.17-5.98-8.68-4-20.34 4.54-26.65 3.15-2.3 7-3.48 10.9-3.4 1.35 0 2.5.12 3.86.34 5.47.7 9.85 3.48 12.7 8.1zm-15.76 15.52c.5-1.07.74-2.3.63-3.48v-.7c-2.44 0-5.02.5-5.02 3.3 0 1.4.76 2.36 2.07 2.36 1-.04 1.87-.65 2.32-1.53v.04z" fill="#0077d3"/><path d="M966.4-28.5l-1.33-87.33-2.4-38.3-11.02-108.57" stroke="#3a414a" stroke-linejoin="round" fill="none"/><path d="M966.88-28h-.96v-.5l.95-.02z" stroke="#3a414a" stroke-width=".05" fill="#3a414a"/><path d="M950.16-277.4l6.05 13.73-9.2.94z" stroke="#3a414a" fill="#3a414a"/><defs><path d="M180 0v-1490h528c311 0 458 177 458 395 0 191-114 278-244 313v14c139 9 302 137 302 371 0 225-148 397-499 397H180zm190-168h350c232 0 321-102 321-231 0-149-120-277-311-277H370v508zm0-668h328c160 0 286-101 286-255 0-129-87-231-280-231H370v486" id="M"/><path d="M471 26C259 26 90-98 90-318c0-256 228-303 435-329 202-27 287-16 287-108 0-139-79-219-234-219-161 0-248 86-283 164l-173-57c86-203 278-265 451-265 150 0 419 46 419 395V0H815v-152h-12C765-73 660 26 471 26zm31-159c199 0 310-134 310-271v-155c-30 35-226 55-295 64-131 17-246 59-246 186 0 116 97 176 231 176" id="N"/><path d="M613 24c-304 0-509-231-509-576 0-350 205-580 509-580 216 0 392 114 453 309l-173 49c-33-115-133-197-280-197-223 0-326 196-326 419 0 220 103 415 326 415 150 0 252-85 285-206l172 49C1010-95 832 24 613 24" id="O"/><path d="M158 0v-1490h180v865h22l478-493h223L593-638 1096 0H865L456-523 338-412V0H158" id="P"/><path d="M628 24c-324 0-524-230-524-574 0-343 198-582 503-582 237 0 487 146 487 559v75H286c9 234 145 362 343 362 132 0 231-58 273-172l174 48C1024-91 857 24 628 24zM287-650h624c-17-190-120-322-304-322-192 0-309 151-320 322" id="Q"/><path d="M338-670V0H158v-1118h173l1 207c72-158 192-221 342-221 226 0 378 139 378 422V0H872v-695c0-172-96-275-252-275-161 0-282 109-282 300" id="R"/><path d="M577 24c-279 0-473-224-473-580 0-354 195-576 474-576 218 0 287 134 324 193h14v-551h180V0H922v-173h-20C865-111 790 24 577 24zm27-161c203 0 314-172 314-421 0-247-108-413-314-413-212 0-317 181-317 413 0 235 108 421 317 421" id="S"/><g id="a"><use transform="matrix(0.010850694444444444,0,0,0.010850694444444444,0,0)" xlink:href="#M"/><use transform="matrix(0.010850694444444444,0,0,0.010850694444444444,14.539930555555555,0)" xlink:href="#N"/><use transform="matrix(0.010850694444444444,0,0,0.010850694444444444,27.018229166666664,0)" xlink:href="#O"/><use transform="matrix(0.010850694444444444,0,0,0.010850694444444444,39.713541666666664,0)" xlink:href="#P"/><use transform="matrix(0.010850694444444444,0,0,0.010850694444444444,51.41059027777778,0)" xlink:href="#Q"/><use transform="matrix(0.010850694444444444,0,0,0.010850694444444444,64.36631944444444,0)" xlink:href="#R"/><use transform="matrix(0.010850694444444444,0,0,0.010850694444444444,77.49565972222221,0)" xlink:href="#S"/></g><path d="M180 0v-1490h908v168H370v486h669v168H370v500h727V0H180" id="T"/><path d="M158 0v-1118h175l1 205c55-151 181-225 313-225 147 0 245 90 285 228 53-141 190-228 352-228 194 0 352 125 352 384V0h-181v-749c0-161-105-225-225-225-151 0-243 103-243 244V0H807v-767c0-124-93-207-219-207-131 0-250 92-250 270V0H158" id="U"/><path d="M158 0v-1118h180V0H158zm91-1301c-68 0-125-53-125-119s57-119 125-119c69 0 126 53 126 119s-57 119-126 119" id="V"/><path d="M338-1490V0H158v-1490h180" id="W"/><path d="M180 0v-1490h190v1322h690V0H180" id="X"/><path d="M677 24c-213 0-288-135-325-197h-20V0H158v-1490h180v551h14c37-59 106-193 324-193 279 0 474 222 474 576 0 356-194 580-473 580zm-27-161c209 0 317-186 317-421 0-232-105-413-317-413-206 0-314 166-314 413 0 249 111 421 314 421" id="Y"/><path d="M538 24C308 24 148-78 108-271l171-41c32 123 123 178 257 178 156 0 256-77 256-169 0-77-54-128-164-154l-186-44c-203-48-300-148-300-305 0-192 176-326 414-326 230 0 351 112 402 269l-163 42c-31-80-94-158-238-158-133 0-233 69-233 162 0 83 57 129 188 160l169 40c203 48 298 149 298 302 0 196-179 339-441 339" id="Z"/><g id="b"><use transform="matrix(0.010850694444444444,0,0,0.010850694444444444,0,0)" xlink:href="#T"/><use transform="matrix(0.010850694444444444,0,0,0.010850694444444444,13.35720486111111,0)" xlink:href="#U"/><use transform="matrix(0.010850694444444444,0,0,0.010850694444444444,32.82335069444444,0)" xlink:href="#N"/><use transform="matrix(0.010850694444444444,0,0,0.010850694444444444,45.30164930555556,0)" xlink:href="#V"/><use transform="matrix(0.010850694444444444,0,0,0.010850694444444444,50.68359375,0)" xlink:href="#W"/><use transform="matrix(0.010850694444444444,0,0,0.010850694444444444,56.06553819444444,0)" xlink:href="#X"/><use transform="matrix(0.010850694444444444,0,0,0.010850694444444444,68.63064236111111,0)" xlink:href="#N"/><use transform="matrix(0.010850694444444444,0,0,0.010850694444444444,81.10894097222223,0)" xlink:href="#Y"/><use transform="matrix(0.010850694444444444,0,0,0.010850694444444444,94.71571180555556,0)" xlink:href="#Z"/></g><path d="M180 0v-1490h901v168H370v510h643v168H370V0H180" id="aa"/><path d="M158 0v-1118h174v172h12c41-113 157-188 290-188 26 0 70 2 91 3v181c-11-2-60-10-108-10-161 0-279 109-279 260V0H158" id="ab"/><path d="M613 24c-304 0-509-231-509-576 0-350 205-580 509-580 305 0 511 230 511 580 0 345-206 576-511 576zm0-161c226 0 329-195 329-415 0-222-103-419-329-419-223 0-326 196-326 419 0 220 103 415 326 415" id="ac"/><path d="M598-1118v154H368v674c0 100 37 144 132 144 23 0 62-6 92-12L629-6c-37 13-88 20-134 20-193 0-307-107-307-290v-688H20v-154h168v-266h180v266h230" id="ad"/><g id="c"><use transform="matrix(0.010850694444444444,0,0,0.010850694444444444,0,0)" xlink:href="#aa"/><use transform="matrix(0.010850694444444444,0,0,0.010850694444444444,12.467447916666666,0)" xlink:href="#ab"/><use transform="matrix(0.010850694444444444,0,0,0.010850694444444444,20.46440972222222,0)" xlink:href="#ac"/><use transform="matrix(0.010850694444444444,0,0,0.010850694444444444,33.7890625,0)" xlink:href="#R"/><use transform="matrix(0.010850694444444444,0,0,0.010850694444444444,46.91840277777778,0)" xlink:href="#ad"/><use transform="matrix(0.010850694444444444,0,0,0.010850694444444444,53.97135416666667,0)" xlink:href="#Q"/><use transform="matrix(0.010850694444444444,0,0,0.010850694444444444,66.92708333333334,0)" xlink:href="#R"/><use transform="matrix(0.010850694444444444,0,0,0.010850694444444444,80.05642361111111,0)" xlink:href="#S"/></g><linearGradient gradientUnits="userSpaceOnUse" id="d" x1="-172.55" y1="-173.68" x2="-172.55" y2="-20.31"><stop offset="22%" stop-color="#00b0ef"/><stop offset="100%" stop-color="#0066ad"/></linearGradient><linearGradient gradientUnits="userSpaceOnUse" id="e" x1="-176.7" y1="-164.89" x2="-166.44" y2="-14.25"><stop offset="22%" stop-color="#00b0ef"/><stop offset="100%" stop-color="#0066ad"/></linearGradient><path d="M763 24c-353 0-583-224-583-531v-983h190v968c0 214 149 370 393 370 243 0 391-156 391-370v-968h190v983c0 307-230 531-581 531" id="ae"/><g id="f"><use transform="matrix(0.010850694444444444,0,0,0.010850694444444444,0,0)" xlink:href="#ae"/><use transform="matrix(0.010850694444444444,0,0,0.010850694444444444,16.536458333333332,0)" xlink:href="#Z"/><use transform="matrix(0.010850694444444444,0,0,0.010850694444444444,28.266059027777775,0)" xlink:href="#Q"/><use transform="matrix(0.010850694444444444,0,0,0.010850694444444444,41.22178819444444,0)" xlink:href="#ab"/></g><linearGradient gradientUnits="userSpaceOnUse" id="g" x1="1449.88" y1="149" x2="1569.88" y2="149"><stop offset="0%" stop-color="#005ba1"/><stop offset="7%" stop-color="#0060a9"/><stop offset="36%" stop-color="#0071c8"/><stop offset="52%" stop-color="#0078d4"/><stop offset="100%" stop-color="#005ba1"/></linearGradient><linearGradient gradientUnits="userSpaceOnUse" id="h" x1="1449.88" y1="149" x2="1569.88" y2="149"><stop offset="0%" stop-color="#005ba1"/><stop offset="7%" stop-color="#0060a9"/><stop offset="36%" stop-color="#0071c8"/><stop offset="52%" stop-color="#0078d4"/><stop offset="100%" stop-color="#005ba1"/></linearGradient><linearGradient gradientUnits="userSpaceOnUse" id="i" x1="1449.88" y1="149" x2="1569.88" y2="149"><stop offset="0%" stop-color="#005ba1"/><stop offset="7%" stop-color="#0060a9"/><stop offset="36%" stop-color="#0071c8"/><stop offset="52%" stop-color="#0078d4"/><stop offset="100%" stop-color="#005ba1"/></linearGradient><path d="M180 0v-1490h510c348 0 508 194 508 460 0 198-88 351-276 417L1256 0h-220L726-579c-117 2-238 0-356 1V0H180zm190-747h312c235 0 327-108 327-283 0-177-92-293-329-293H370v576" id="af"/><g id="j"><use transform="matrix(0.010850694444444444,0,0,0.010850694444444444,0,0)" xlink:href="#af"/><use transform="matrix(0.010850694444444444,0,0,0.010850694444444444,13.975694444444445,0)" xlink:href="#Q"/><use transform="matrix(0.010850694444444444,0,0,0.010850694444444444,26.931423611111104,0)" xlink:href="#S"/><use transform="matrix(0.010850694444444444,0,0,0.010850694444444444,40.53819444444444,0)" xlink:href="#V"/><use transform="matrix(0.010850694444444444,0,0,0.010850694444444444,45.920138888888886,0)" xlink:href="#Z"/></g><path d="M783 20c-382 0-661-292-661-764 0-473 279-766 661-766 302 0 548 182 601 489h-190c-42-204-217-313-411-313-268 0-476 208-476 590 0 381 209 588 476 588 195 0 369-110 411-313h190c-52 303-296 489-601 489" id="ag"/><path d="M338-670V0H158v-1490h180v566c73-149 190-208 336-208 226 0 379 139 379 422V0H872v-695c0-172-96-275-252-275-161 0-282 109-282 300" id="ah"/><g id="k"><use transform="matrix(0.010850694444444444,0,0,0.010850694444444444,0,0)" xlink:href="#ag"/><use transform="matrix(0.010850694444444444,0,0,0.010850694444444444,16.23263888888889,0)" xlink:href="#N"/><use transform="matrix(0.010850694444444444,0,0,0.010850694444444444,28.7109375,0)" xlink:href="#O"/><use transform="matrix(0.010850694444444444,0,0,0.010850694444444444,41.40625,0)" xlink:href="#ah"/><use transform="matrix(0.010850694444444444,0,0,0.010850694444444444,54.54644097222222,0)" xlink:href="#Q"/></g><linearGradient gradientUnits="userSpaceOnUse" id="l" x1="451.83" y1="-82.07" x2="421" y2="-140.94"><stop offset="0%" stop-color="#0d7dd3"/><stop offset="90%" stop-color="#48a3ea"/></linearGradient><linearGradient gradientUnits="userSpaceOnUse" id="m" x1="438.56" y1="-99.15" x2="459.92" y2="-62.09"><stop offset="10%" stop-color="#48a3ea"/><stop offset="29%" stop-color="#43a0e8"/><stop offset="51%" stop-color="#3597e3"/><stop offset="74%" stop-color="#1e88da"/><stop offset="88%" stop-color="#0d7dd3"/></linearGradient><path d="M180 0v-1490h270l367 940c28 72 75 218 110 339 35-117 81-264 110-339l362-940h271V0h-187c2-448-5-837 7-1287-157 497-311 829-483 1287H842C666-458 514-784 354-1284c12 438 5 843 7 1284H180" id="ai"/><path d="M657 26c-323 0-524-166-541-416h195c15 169 171 246 346 246 202 0 356-106 356-265 5-203-294-238-475-293-239-73-380-191-380-389 0-252 224-419 512-419 294 0 499 171 508 396H992c-17-145-151-228-328-228-193 0-321 102-321 242 0 156 175 211 284 241l149 41c160 44 422 134 422 412 0 244-197 432-541 432" id="aj"/><path d="M52 0l541-1490h220L1361 0h-200l-149-416H398L254 0H52zm404-582h497c-103-290-145-390-251-756-108 377-145 460-246 756" id="ak"/><g id="n"><use transform="matrix(0.010850694444444444,0,0,0.010850694444444444,0,0)" xlink:href="#ai"/><use transform="matrix(0.010850694444444444,0,0,0.010850694444444444,20.07378472222222,0)" xlink:href="#aj"/><use transform="matrix(0.010850694444444444,0,0,0.010850694444444444,34.33159722222222,0)" xlink:href="#ak"/><use transform="matrix(0.010850694444444444,0,0,0.010850694444444444,49.66362847222222,0)" xlink:href="#X"/></g><path d="M537 14c-226 0-379-139-379-422v-710h180v695c0 172 97 275 253 275 160 0 281-109 281-300v-670h181V0H879v-209C806-46 684 14 537 14" id="al"/><g id="o"><use transform="matrix(0.010850694444444444,0,0,0.010850694444444444,0,0)" xlink:href="#ak"/><use transform="matrix(0.010850694444444444,0,0,0.010850694444444444,15.33203125,0)" xlink:href="#al"/><use transform="matrix(0.010850694444444444,0,0,0.010850694444444444,28.47222222222222,0)" xlink:href="#ad"/><use transform="matrix(0.010850694444444444,0,0,0.010850694444444444,35.7421875,0)" xlink:href="#ah"/></g><linearGradient gradientUnits="userSpaceOnUse" id="p" x1="365.51" y1="-403.22" x2="430.97" y2="-403.22"><stop offset="44.6%" stop-color="#44dbf9"/><stop offset="54.3%" stop-color="#43d7f6"/><stop offset="62.2%" stop-color="#40cded"/><stop offset="69.6%" stop-color="#3cbcdf"/><stop offset="76.7%" stop-color="#36a4cb"/><stop offset="83.4%" stop-color="#2e84b1"/><stop offset="89.9%" stop-color="#255f92"/><stop offset="92.2%" stop-color="#225086"/></linearGradient><linearGradient gradientUnits="userSpaceOnUse" id="q" x1="414.29" y1="-354.44" x2="414.29" y2="-452"><stop offset="0%" stop-color="#225086"/><stop offset="100%" stop-color="#0055c5"/></linearGradient><linearGradient gradientUnits="userSpaceOnUse" id="r" x1="438.59" y1="-354.44" x2="438.59" y2="-452"><stop offset="0%" stop-color="#225086"/><stop offset="50.8%" stop-color="#0294e4"/><stop offset="100%" stop-color="#6df"/></linearGradient><linearGradient gradientUnits="userSpaceOnUse" id="s" x1="452.27" y1="-336.07" x2="452.27" y2="-377.04"><stop offset="0%" stop-color="#275b98"/><stop offset="100%" stop-color="#3a88ef"/></linearGradient><g id="t"><use transform="matrix(0.010850694444444444,0,0,0.010850694444444444,0,0)" xlink:href="#aa"/><use transform="matrix(0.010850694444444444,0,0,0.010850694444444444,12.467447916666666,0)" xlink:href="#ab"/><use transform="matrix(0.010850694444444444,0,0,0.010850694444444444,20.46440972222222,0)" xlink:href="#ac"/><use transform="matrix(0.010850694444444444,0,0,0.010850694444444444,33.7890625,0)" xlink:href="#R"/><use transform="matrix(0.010850694444444444,0,0,0.010850694444444444,46.91840277777778,0)" xlink:href="#ad"/><use transform="matrix(0.010850694444444444,0,0,0.010850694444444444,53.97135416666667,0)" xlink:href="#Q"/><use transform="matrix(0.010850694444444444,0,0,0.010850694444444444,66.92708333333334,0)" xlink:href="#R"/><use transform="matrix(0.010850694444444444,0,0,0.010850694444444444,80.05642361111111,0)" xlink:href="#S"/></g><path d="M481 0L54-1118h197c107 314 236 620 325 951 87-331 217-637 324-951h197L670 0H481" id="am"/><g id="u"><use transform="matrix(0.010850694444444444,0,0,0.010850694444444444,0,0)" xlink:href="#aj"/><use transform="matrix(0.010850694444444444,0,0,0.010850694444444444,14.2578125,0)" xlink:href="#Q"/><use transform="matrix(0.010850694444444444,0,0,0.010850694444444444,27.213541666666664,0)" xlink:href="#ab"/><use transform="matrix(0.010850694444444444,0,0,0.010850694444444444,35.92664930555555,0)" xlink:href="#am"/><use transform="matrix(0.010850694444444444,0,0,0.010850694444444444,48.41579861111111,0)" xlink:href="#V"/><use transform="matrix(0.010850694444444444,0,0,0.010850694444444444,53.79774305555556,0)" xlink:href="#O"/><use transform="matrix(0.010850694444444444,0,0,0.010850694444444444,66.49305555555554,0)" xlink:href="#Q"/></g><linearGradient gradientUnits="userSpaceOnUse" id="v" x1="1250.34" y1="56.34" x2="1250.34" y2="-20"><stop offset="8.9%" stop-color="#225086"/><stop offset="45.8%" stop-color="#0055c5"/></linearGradient><linearGradient gradientUnits="userSpaceOnUse" id="w" x1="1288" y1="79.01" x2="1288" y2="24.16"><stop offset="0%" stop-color="#0294e4"/><stop offset="19.2%" stop-color="#23aced"/><stop offset="39.8%" stop-color="#40c1f4"/><stop offset="60.3%" stop-color="#55d0fa"/><stop offset="80.5%" stop-color="#61d9fd"/><stop offset="100%" stop-color="#6df"/></linearGradient><path d="M98-1322v-168h1126v168H757V0H567v-1322H98" id="an"/><g id="x"><use transform="matrix(0.010850694444444444,0,0,0.010850694444444444,0,0)" xlink:href="#an"/><use transform="matrix(0.010850694444444444,0,0,0.010850694444444444,12.608506944444445,0)" xlink:href="#ac"/><use transform="matrix(0.010850694444444444,0,0,0.010850694444444444,25.93315972222222,0)" xlink:href="#P"/><use transform="matrix(0.010850694444444444,0,0,0.010850694444444444,37.630208333333336,0)" xlink:href="#Q"/><use transform="matrix(0.010850694444444444,0,0,0.010850694444444444,50.5859375,0)" xlink:href="#R"/></g><path d="M678-1118v154H420V0H240v-964H20v-154h220v-149c0-194 155-293 318-293 85 0 141 18 168 30l-50 154c-19-6-47-17-97-17-111 0-159 58-159 166v109h258" id="ao"/><g id="y"><use transform="matrix(0.010850694444444444,0,0,0.010850694444444444,0,0)" xlink:href="#am"/><use transform="matrix(0.010850694444444444,0,0,0.010850694444444444,12.055121527777777,0)" xlink:href="#Q"/><use transform="matrix(0.010850694444444444,0,0,0.010850694444444444,25.010850694444443,0)" xlink:href="#ab"/><use transform="matrix(0.010850694444444444,0,0,0.010850694444444444,33.72395833333333,0)" xlink:href="#V"/><use transform="matrix(0.010850694444444444,0,0,0.010850694444444444,39.10590277777777,0)" xlink:href="#ao"/><use transform="matrix(0.010850694444444444,0,0,0.010850694444444444,47.33072916666666,0)" xlink:href="#V"/><use transform="matrix(0.010850694444444444,0,0,0.010850694444444444,52.7126736111111,0)" xlink:href="#O"/><use transform="matrix(0.010850694444444444,0,0,0.010850694444444444,65.62499999999999,0)" xlink:href="#N"/><use transform="matrix(0.010850694444444444,0,0,0.010850694444444444,78.1032986111111,0)" xlink:href="#ad"/><use transform="matrix(0.010850694444444444,0,0,0.010850694444444444,85.37326388888887,0)" xlink:href="#V"/><use transform="matrix(0.010850694444444444,0,0,0.010850694444444444,90.75520833333331,0)" xlink:href="#ac"/><use transform="matrix(0.010850694444444444,0,0,0.010850694444444444,104.07986111111109,0)" xlink:href="#R"/></g><linearGradient gradientUnits="userSpaceOnUse" id="z" x1="1469.31" y1="-139.22" x2="1550.45" y2="-139.22"><stop offset="0%" stop-color="#005ba1"/><stop offset="7%" stop-color="#0060a9"/><stop offset="36%" stop-color="#0071c8"/><stop offset="52%" stop-color="#0078d4"/><stop offset="64%" stop-color="#0074cd"/><stop offset="82%" stop-color="#006abb"/><stop offset="100%" stop-color="#005ba1"/></linearGradient><path d="M645 0H180v-1490h484c435 0 692 280 692 742 0 466-257 748-711 748zM370-168h263c363 0 539-218 539-580 0-358-176-574-521-574H370v1154" id="ap"/><g id="A"><use transform="matrix(0.010850694444444444,0,0,0.010850694444444444,0,0)" xlink:href="#ai"/><use transform="matrix(0.010850694444444444,0,0,0.010850694444444444,20.07378472222222,0)" xlink:href="#N"/><use transform="matrix(0.010850694444444444,0,0,0.010850694444444444,32.55208333333333,0)" xlink:href="#ab"/><use transform="matrix(0.010850694444444444,0,0,0.010850694444444444,41.265190972222214,0)" xlink:href="#V"/><use transform="matrix(0.010850694444444444,0,0,0.010850694444444444,46.64713541666666,0)" xlink:href="#N"/><use transform="matrix(0.010850694444444444,0,0,0.010850694444444444,59.12543402777778,0)" xlink:href="#ap"/><use transform="matrix(0.010850694444444444,0,0,0.010850694444444444,75.16276041666666,0)" xlink:href="#M"/></g><path d="M65 0l393-574-370-544h210c88 136 192 297 267 435 67-142 176-302 264-435h206L661-564 1053 0H844c-94-144-206-310-287-458C484-308 366-142 273 0H65" id="aq"/><path d="M158 418v-1536h174v179h20c37-59 106-193 324-193 279 0 474 222 474 576 0 356-194 580-473 580-213 0-288-135-325-197h-14v591H158zm492-555c209 0 317-186 317-421 0-232-105-413-317-413-206 0-314 166-314 413 0 249 111 421 314 421" id="ar"/><g id="B"><use transform="matrix(0.010850694444444444,0,0,0.010850694444444444,0,0)" xlink:href="#T"/><use transform="matrix(0.010850694444444444,0,0,0.010850694444444444,13.35720486111111,0)" xlink:href="#aq"/><use transform="matrix(0.010850694444444444,0,0,0.010850694444444444,25.48828125,0)" xlink:href="#ar"/><use transform="matrix(0.010850694444444444,0,0,0.010850694444444444,39.09505208333333,0)" xlink:href="#ab"/><use transform="matrix(0.010850694444444444,0,0,0.010850694444444444,47.09201388888888,0)" xlink:href="#Q"/><use transform="matrix(0.010850694444444444,0,0,0.010850694444444444,60.04774305555554,0)" xlink:href="#Z"/><use transform="matrix(0.010850694444444444,0,0,0.010850694444444444,71.77734374999999,0)" xlink:href="#Z"/></g><g id="C"><use transform="matrix(0.010850694444444444,0,0,0.010850694444444444,0,0)" xlink:href="#aj"/><use transform="matrix(0.010850694444444444,0,0,0.010850694444444444,14.2578125,0)" xlink:href="#Q"/><use transform="matrix(0.010850694444444444,0,0,0.010850694444444444,27.213541666666664,0)" xlink:href="#ab"/><use transform="matrix(0.010850694444444444,0,0,0.010850694444444444,35.92664930555555,0)" xlink:href="#am"/><use transform="matrix(0.010850694444444444,0,0,0.010850694444444444,47.98177083333333,0)" xlink:href="#Q"/><use transform="matrix(0.010850694444444444,0,0,0.010850694444444444,60.937499999999986,0)" xlink:href="#ab"/></g><g id="D"><use transform="matrix(0.010850694444444444,0,0,0.010850694444444444,0,0)" xlink:href="#X"/><use transform="matrix(0.010850694444444444,0,0,0.010850694444444444,12.565104166666666,0)" xlink:href="#ac"/><use transform="matrix(0.010850694444444444,0,0,0.010850694444444444,25.889756944444443,0)" xlink:href="#O"/><use transform="matrix(0.010850694444444444,0,0,0.010850694444444444,38.80208333333333,0)" xlink:href="#N"/><use transform="matrix(0.010850694444444444,0,0,0.010850694444444444,51.28038194444444,0)" xlink:href="#W"/></g><path d="M611 442c-248 0-391-105-460-228l146-94c47 65 117 165 314 165 178 0 307-82 307-266v-224h-17C863-141 792-18 576-18c-268 0-472-195-472-546 0-346 197-568 476-568 216 0 288 133 326 193h17v-179h175V29c0 289-215 413-487 413zm-5-620c203 0 314-146 314-390 0-237-108-403-314-403-213 0-319 180-319 403 0 230 109 390 319 390" id="as"/><g id="E"><use transform="matrix(0.010850694444444444,0,0,0.010850694444444444,0,0)" xlink:href="#Z"/><use transform="matrix(0.010850694444444444,0,0,0.010850694444444444,11.729600694444445,0)" xlink:href="#ad"/><use transform="matrix(0.010850694444444444,0,0,0.010850694444444444,18.782552083333332,0)" xlink:href="#ac"/><use transform="matrix(0.010850694444444444,0,0,0.010850694444444444,32.10720486111111,0)" xlink:href="#ab"/><use transform="matrix(0.010850694444444444,0,0,0.010850694444444444,40.47309027777777,0)" xlink:href="#N"/><use transform="matrix(0.010850694444444444,0,0,0.010850694444444444,52.951388888888886,0)" xlink:href="#as"/><use transform="matrix(0.010850694444444444,0,0,0.010850694444444444,66.57986111111111,0)" xlink:href="#Q"/></g><path fill="#0055c5" d="M389 0L147-1118h188c55 314 135 617 168 951 141-329 323-637 482-951h205L578 0H389" id="at"/><path fill="#0055c5" d="M535 24C259 24 94-144 94-427c0-392 272-715 610-715 216 0 356 119 356 305 0 244-237 344-790 350-18 199 49 349 276 352 142 0 260-66 317-173l167 47C947-85 756 24 535 24zM294-623c447-4 586-57 586-218 0-85-78-141-194-141-220 0-342 177-392 359" id="au"/><path fill="#0055c5" d="M66 0l185-1118h174l-28 172h12c78-136 219-209 411-185l-30 181c-211-47-398 67-428 250L246 0H66" id="av"/><path fill="#0055c5" d="M66 0l185-1118h180L246 0H66zm307-1301c-71 0-117-55-106-119s74-119 145-119c65 0 117 50 106 118s-78 120-145 120" id="aw"/><path fill="#0055c5" d="M780-1118l-24 146H497L317 116C281 334 148 448-56 448c-43 0-82-5-117-17l45-161c143 34 239 0 264-153L316-972H89l24-146h227l13-77c43-287 254-417 541-345l-50 154c-23-5-81-8-121-8-107 0-167 63-189 196l-13 80h259" id="ax"/><path fill="#0055c5" d="M-19 405l72-156c121 32 203 15 288-150l47-93-241-1124h188c55 313 135 616 167 950 142-329 324-636 483-950h205L486 167c-97 177-219 259-378 259-59 0-109-11-127-21" id="ay"/><g id="F"><use transform="matrix(0.006510416666666667,0,0,0.006510416666666667,0,0)" xlink:href="#at"/><use transform="matrix(0.006510416666666667,0,0,0.006510416666666667,7.233072916666667,0)" xlink:href="#au"/><use transform="matrix(0.006510416666666667,0,0,0.006510416666666667,14.908854166666668,0)" xlink:href="#av"/><use transform="matrix(0.006510416666666667,0,0,0.006510416666666667,20.143229166666668,0)" xlink:href="#aw"/><use transform="matrix(0.006510416666666667,0,0,0.006510416666666667,23.37890625,0)" xlink:href="#ax"/><use transform="matrix(0.006510416666666667,0,0,0.006510416666666667,28.352864583333336,0)" xlink:href="#ay"/></g><path fill="#0055c5" d="M495 20C194 20 39-165 78-401c30-185 169-285 363-413-83-124-136-225-113-365 31-191 192-325 408-325 229 0 343 149 317 333-25 180-223 308-374 402l253 380c54-76 93-167 110-269h173c-34 214-118 340-186 413L1192 0H979l-80-121C784-24 626 20 495 20zm314-278L535-674l-62 41c-139 91-199 164-215 262-23 141 69 234 229 234 110 0 225-44 322-121zM586-909l115-75c61-40 157-103 176-214 15-89-38-151-141-151-118 0-212 80-231 193-14 83 21 156 81 247" id="az"/><use transform="matrix(0.006510416666666667,0,0,0.006510416666666667,0,0)" xlink:href="#az" id="G"/><path fill="#0055c5" d="M-4 418l255-1536h174l-30 179h9c47-68 143-193 355-193 246 0 401 170 401 447 0 348-211 709-568 709-219 0-274-140-300-202h-17l-99 596H-4zm572-555c267 0 411-296 411-543 0-170-78-291-250-291-269 0-405 284-405 542 0 177 81 292 244 292" id="aA"/><path fill="#0055c5" d="M481 24C202 24 45-202 104-557s293-575 571-575c216 0 263 132 291 193h15l29-179h181L1006 0H831l28-173h-21C788-107 693 24 481 24zm56-161c204 0 342-174 383-422s-41-412-245-412c-215 0-350 183-388 412-39 235 39 422 250 422" id="aB"/><path fill="#0055c5" d="M451 24C217 22 71-78 61-277l174-29c11 123 90 172 219 172 161 0 280-83 297-181 11-71-30-117-135-143l-179-44c-195-48-280-153-253-316 31-186 223-314 455-314 233 4 337 107 366 275l-165 30c-18-80-65-152-204-152-138 0-256 75-272 174-13 77 32 118 158 149l162 40c195 48 278 154 252 313C904-113 708 24 451 24" id="aC"/><g id="H"><use transform="matrix(0.006510416666666667,0,0,0.006510416666666667,0,0)" xlink:href="#aA"/><use transform="matrix(0.006510416666666667,0,0,0.006510416666666667,8.170572916666668,0)" xlink:href="#aB"/><use transform="matrix(0.006510416666666667,0,0,0.006510416666666667,16.354166666666668,0)" xlink:href="#aC"/><use transform="matrix(0.006510416666666667,0,0,0.006510416666666667,23.385416666666668,0)" xlink:href="#aC"/></g><path fill="#0055c5" d="M492 24C248 24 94-147 94-425c0-352 212-707 569-707 222 0 274 136 303 198h12l92-556h181L1004 0H829l30-173h-19C792-103 700 24 492 24zm32-161c268 0 407-295 407-549 0-175-80-285-247-285-266 0-408 283-408 536 0 174 79 298 248 298" id="aD"/><path fill="#0055c5" d="M691-1118l-25 154H437L325-290c-17 103 16 144 108 144 23 0 63-6 94-12L538-6c-36 12-87 20-136 20-196 0-290-109-260-290l114-688H88l25-154h169l44-266h180l-44 266h229" id="aE"/><g id="I"><use transform="matrix(0.006510416666666667,0,0,0.006510416666666667,0,0)" xlink:href="#aD"/><use transform="matrix(0.006510416666666667,0,0,0.006510416666666667,8.170572916666668,0)" xlink:href="#aB"/><use transform="matrix(0.006510416666666667,0,0,0.006510416666666667,16.354166666666668,0)" xlink:href="#aE"/><use transform="matrix(0.006510416666666667,0,0,0.006510416666666667,20.598958333333336,0)" xlink:href="#aB"/></g><path fill="#0055c5" d="M65 0l186-1118h175l-31 195c80-148 212-215 337-215 153 0 236 96 255 228 75-143 223-228 382-228 199 0 341 131 298 390L1543 0h-181l126-756c27-162-65-218-177-218-160 0-274 111-297 250L894 0H714l128-773c21-127-57-201-174-201-136 0-277 97-307 277L245 0H65" id="aF"/><path fill="#0055c5" d="M492-1490L245 0H65l247-1490h180" id="aG"/><g id="J"><use transform="matrix(0.006510416666666667,0,0,0.006510416666666667,0,0)" xlink:href="#au"/><use transform="matrix(0.006510416666666667,0,0,0.006510416666666667,7.67578125,0)" xlink:href="#aF"/><use transform="matrix(0.006510416666666667,0,0,0.006510416666666667,19.35546875,0)" xlink:href="#aB"/><use transform="matrix(0.006510416666666667,0,0,0.006510416666666667,27.5390625,0)" xlink:href="#aw"/><use transform="matrix(0.006510416666666667,0,0,0.006510416666666667,30.774739583333336,0)" xlink:href="#aG"/></g><g id="K"><use transform="matrix(0.006510416666666667,0,0,0.006510416666666667,0,0)" xlink:href="#aB"/><use transform="matrix(0.006510416666666667,0,0,0.006510416666666667,8.18359375,0)" xlink:href="#ax"/><use transform="matrix(0.006510416666666667,0,0,0.006510416666666667,12.701822916666668,0)" xlink:href="#aE"/><use transform="matrix(0.006510416666666667,0,0,0.006510416666666667,16.946614583333336,0)" xlink:href="#au"/><use transform="matrix(0.006510416666666667,0,0,0.006510416666666667,24.622395833333336,0)" xlink:href="#av"/></g><path fill="#0055c5" d="M528 24C258 24 94-156 94-433c0-354 228-699 603-699 222 0 381 120 410 314l-176 39c-14-114-95-192-238-192-272 0-419 288-419 536 0 167 76 298 258 298 155 0 277-90 329-211l166 58C935-93 745 24 528 24" id="aH"/><path fill="#0055c5" d="M528 24C258 24 94-156 94-433c0-355 229-699 603-699 270 0 436 178 436 458 0 359-234 698-605 698zm4-161c275 0 420-287 420-533 0-170-77-301-260-301-271 0-418 288-418 536 0 168 77 298 258 298" id="aI"/><path fill="#0055c5" d="M356-664L245 0H65l186-1118h173l-32 197c96-152 219-211 366-211 232 0 366 145 319 428L960 0H779l117-701c29-174-48-269-198-269-165 0-310 115-342 306" id="aJ"/><g id="L"><use transform="matrix(0.006510416666666667,0,0,0.006510416666666667,0,0)" xlink:href="#at"/><use transform="matrix(0.006510416666666667,0,0,0.006510416666666667,7.233072916666667,0)" xlink:href="#au"/><use transform="matrix(0.006510416666666667,0,0,0.006510416666666667,14.908854166666668,0)" xlink:href="#av"/><use transform="matrix(0.006510416666666667,0,0,0.006510416666666667,20.143229166666668,0)" xlink:href="#aw"/><use transform="matrix(0.006510416666666667,0,0,0.006510416666666667,23.37890625,0)" xlink:href="#ax"/><use transform="matrix(0.006510416666666667,0,0,0.006510416666666667,28.352864583333336,0)" xlink:href="#aw"/><use transform="matrix(0.006510416666666667,0,0,0.006510416666666667,31.588541666666668,0)" xlink:href="#aH"/><use transform="matrix(0.006510416666666667,0,0,0.006510416666666667,39.212239583333336,0)" xlink:href="#aB"/><use transform="matrix(0.006510416666666667,0,0,0.006510416666666667,47.395833333333336,0)" xlink:href="#aE"/><use transform="matrix(0.006510416666666667,0,0,0.006510416666666667,51.770833333333336,0)" xlink:href="#aw"/><use transform="matrix(0.006510416666666667,0,0,0.006510416666666667,55.00651041666667,0)" xlink:href="#aI"/><use transform="matrix(0.006510416666666667,0,0,0.006510416666666667,63.0078125,0)" xlink:href="#aJ"/></g></defs></g></svg>